<svg width="82" height="42" viewBox="0 0 82 42" fill="none" xmlns="http://www.w3.org/2000/svg">
<g id="logo" clip-path="url(#clip0_42_1137)">
<g id="Group">
<path id="Vector" d="M62.4998 1.46495C63.5258 0.907947 64.9658 0.746947 65.8558 1.57195C66.7458 2.39695 66.5318 3.61995 65.8558 5.54495C65.8558 5.54495 64.3508 9.61095 62.8008 13.8069L62.4028 14.8869C60.9888 18.7169 59.6408 22.3739 59.4758 22.8499C57.9778 27.0949 61.4428 26.9719 63.4998 22.6979C64.6588 20.3039 66.1437 16.3409 66.1437 16.3409C66.6677 14.7779 66.8257 13.8369 66.5027 13.5129C66.3957 13.3999 66.5477 13.2609 66.6827 13.1899C68.9517 12.0409 71.3127 13.1179 70.0187 16.4999L69.9647 16.6379C69.5777 17.6159 67.2848 23.3709 67.2848 23.3709C66.6087 25.0309 66.6898 26.6069 67.7028 26.6069C68.3887 26.6029 69.1628 26.2219 70.0068 25.5189C71.8248 24.0149 73.2288 21.2069 73.7337 20.0649C73.9638 19.5569 74.8207 17.6449 75.4997 15.7039C75.7357 15.0389 75.8687 14.3439 75.8947 13.6389C75.8773 13.5518 75.8865 13.4614 75.9211 13.3796C75.9557 13.2977 76.0141 13.2282 76.0887 13.1799C76.6029 12.9061 77.1762 12.7619 77.7588 12.7599C78.0411 12.7547 78.3207 12.8157 78.5751 12.9382C78.8296 13.0606 79.0517 13.241 79.2237 13.4649C79.6667 14.0629 79.7897 15.0439 79.3268 16.2729C79.2067 16.5929 75.5518 26.2309 75.5518 26.2309V26.2569C77.5928 25.0339 79.4217 24.9439 80.5047 25.4029L80.5017 25.3899C81.9967 26.0369 82.4918 27.8299 81.4398 28.9489C81.3368 29.0589 81.0778 29.0329 81.0778 28.8589C80.9837 27.6059 78.5608 25.3639 74.9688 27.7839L74.8237 28.1689L73.7557 30.9769C71.1357 37.9949 68.3528 43.1129 64.3408 41.9769C61.6528 41.2169 61.9638 37.3699 64.8558 34.1869C66.8584 32.051 69.0286 30.0787 71.3457 28.2889C71.4137 28.1009 71.4757 27.9389 71.5337 27.7779C71.8117 26.9979 72.0247 26.3439 72.3257 25.5129L72.4847 24.9949C72.3067 25.1949 71.9867 25.5679 71.7728 25.8069C71.0608 26.6069 69.2787 28.5639 66.4437 28.0139L66.2097 27.9619C64.1597 27.4539 63.6018 25.9759 63.5548 24.6849C61.4128 27.3409 59.2038 28.1109 57.7478 28.0749C55.7998 28.0269 54.3698 26.5609 55.3208 23.7849C56.3787 20.6789 60.8208 8.45295 62.1158 4.78495C62.6008 3.20495 62.7817 2.20495 62.2998 1.81095C62.1768 1.70795 62.3518 1.54595 62.4998 1.46495ZM70.8637 30.2429C69.7607 31.1229 65.3377 34.7729 64.1117 37.6839C63.6067 38.8809 63.7357 39.8329 64.5997 39.9169C66.5597 40.1109 68.6117 36.0989 70.8278 30.4049L70.8637 30.2429ZM16.0278 5.85195C15.9408 6.18395 14.7087 9.71195 13.3267 13.6009L13.1178 14.1869L12.9078 14.7759L12.6927 15.3799C17.3838 14.2569 25.7568 8.80995 26.7278 5.29495C26.8478 5.13395 27.0178 5.07495 27.2938 5.25995C27.7888 5.58995 27.9797 6.41495 27.7887 7.17795C27.0247 10.2159 21.3727 14.5189 16.4097 16.7319C17.0217 18.3689 19.0917 22.9989 20.6157 25.8429C22.2787 28.9619 24.0358 30.4179 26.7628 30.5799C28.2228 30.6649 29.7768 30.1329 30.6558 29.3599L30.8038 29.2199L30.7908 29.2499C30.9848 29.0459 31.3018 29.3269 31.1567 29.5729C30.6007 30.4021 29.8612 31.092 28.9954 31.5892C28.1297 32.0864 27.1611 32.3775 26.1648 32.4399C19.8198 32.8669 17.3908 28.5699 12.8608 17.9459C12.4948 18.0719 12.0518 18.2339 11.6058 18.3959C11.5308 18.5829 9.53575 24.0379 9.47575 24.2189C8.53175 27.0889 8.47075 28.6609 9.11775 29.1139C9.26275 29.2039 9.19175 29.4469 8.93975 29.5279C6.41275 30.3239 4.08675 28.8319 5.38075 25.0859C6.54175 21.7699 11.0708 8.90595 12.2948 5.45995C12.7218 4.16595 12.4918 3.33495 11.8028 3.15395C8.50575 2.27995 0.876751 9.24895 1.97075 15.6839C2.16075 16.8039 2.95075 17.4309 3.34875 17.3469C3.37043 17.3426 3.39286 17.3437 3.41399 17.3502C3.43513 17.3568 3.45431 17.3684 3.4698 17.3842C3.48528 17.4 3.49659 17.4194 3.50269 17.4407C3.5088 17.4619 3.5095 17.4844 3.50475 17.5059C3.39392 17.8855 3.13845 18.2063 2.79336 18.3994C2.44827 18.5924 2.04118 18.6422 1.65975 18.5379C0.489751 18.2819 0.106751 17.0269 0.0427506 16.3799C-0.601249 9.71995 6.14775 1.72995 12.3888 1.07995C14.7668 0.829947 16.9977 2.03995 16.0278 5.85195ZM40.0678 15.7649L40.0078 15.9719L37.1778 24.1319C36.8738 24.9819 37.0778 25.8689 37.6788 26.0339C39.4358 26.5159 41.7068 23.8889 42.8098 21.3009C43.34 20.0444 43.8322 18.7722 44.2858 17.4859C44.8678 15.8429 45.3918 14.3029 45.0688 13.5779C44.9938 13.4099 45.1138 13.3219 45.2918 13.2279C45.7968 12.9729 47.5177 12.4029 48.4328 13.2959C49.1278 13.9699 49.0418 15.0669 48.4028 16.7329L48.3068 16.9749L48.5268 16.7019C51.2298 13.4019 53.3188 12.4099 55.0898 13.1049L55.2368 13.1669C57.6178 14.2409 56.3828 18.3819 53.1208 18.6469C52.9207 18.6639 52.7648 18.5209 52.9628 18.2399C53.3578 17.6349 53.3188 16.3309 52.1668 16.2179C51.0148 16.1049 49.3368 17.4249 48.1288 19.0619C47.0448 20.5119 45.9288 22.9729 44.8068 26.3349C44.5348 27.1529 44.6637 27.3469 44.6968 27.4019C44.7045 27.4164 44.7085 27.4326 44.7085 27.4489C44.7085 27.4653 44.7045 27.4815 44.6968 27.4959C44.5537 27.7679 43.7318 28.0919 42.9368 28.0919C41.3118 28.0849 40.6458 27.1469 40.9698 25.6549C39.1218 27.4189 37.2588 28.2689 35.6148 28.1209C35.2531 28.0895 34.9024 27.9804 34.5867 27.8011C34.271 27.6218 33.9977 27.3766 33.7855 27.082C33.5732 26.7874 33.427 26.4506 33.3568 26.0944C33.2866 25.7382 33.2941 25.371 33.3788 25.0179C31.9528 26.8269 29.8368 28.2859 27.6817 28.0849C25.5267 27.8849 24.1817 26.4189 24.8797 23.2969C25.4697 20.6989 28.2192 14.1869 31.4998 11.9999C32.9998 10.9999 34.6654 11.178 34.9998 10.9999C36.4998 11.4999 36.7229 11.9522 36.2068 13.4468C33.9998 13.4999 32.4998 14.9999 31.1567 16.7019C29.2554 18.6878 28.1556 22.0192 27.9998 22.4999C27.2628 24.7869 28.3647 26.2089 29.4097 26.2659C30.4548 26.3259 31.8398 25.3059 32.8298 23.7629C34.5898 21.2389 35.4108 18.0779 36.2068 15.8809C36.4108 15.3209 36.9998 13.9999 36.2068 13.4468C35.9897 13.5424 34.7918 11.1139 34.9998 10.9999C36.9998 10.4999 40.9508 12.5169 40.0678 15.7649Z" fill="#5F0080"/>
</g>
</g>
<defs>
<clipPath id="clip0_42_1137">
<rect width="82" height="42" fill="white"/>
</clipPath>
</defs>
</svg>
