<svg width="64" height="64" viewBox="0 0 64 64" fill="none" xmlns="http://www.w3.org/2000/svg">
<g filter="url(#filter0_d_45_1196)">
<rect x="4.5" y="0.5" width="55" height="55" rx="3.5" stroke="#E1E1E1" shape-rendering="crispEdges"/>
<path fill-rule="evenodd" clip-rule="evenodd" d="M42.9269 18.8929C42.3269 18.2926 41.6146 17.8164 40.8305 17.4914C40.0465 17.1665 39.2061 16.9993 38.3574 16.9993C37.5086 16.9993 36.6682 17.1665 35.8842 17.4914C35.1001 17.8164 34.3878 18.2926 33.7879 18.8929L31.9589 20.7209L30.1319 18.8929C28.9201 17.6809 27.2765 16.9999 25.5626 16.9997C23.8487 16.9995 22.2049 17.6802 20.9929 18.8919C19.7808 20.1037 19.0998 21.7473 19.0996 23.4612C19.0994 25.1751 19.7801 26.8189 20.9919 28.0309L22.8199 29.8599L31.2519 38.2939C31.4394 38.4814 31.6937 38.5867 31.9589 38.5867C32.224 38.5867 32.4783 38.4814 32.6659 38.2939L41.0989 29.8599L42.9269 28.0319C43.5271 27.432 44.0032 26.7198 44.328 25.9358C44.6528 25.1518 44.82 24.3115 44.82 23.4629C44.82 22.6144 44.6528 21.7741 44.328 20.9901C44.0032 20.2061 43.5271 19.4939 42.9269 18.8939V18.8929Z" stroke="#5F0080" stroke-width="1.7" stroke-linecap="round"/>
</g>
<defs>
<filter id="filter0_d_45_1196" x="0" y="0" width="64" height="64" filterUnits="userSpaceOnUse" color-interpolation-filters="sRGB">
<feFlood flood-opacity="0" result="BackgroundImageFix"/>
<feColorMatrix in="SourceAlpha" type="matrix" values="0 0 0 0 0 0 0 0 0 0 0 0 0 0 0 0 0 0 127 0" result="hardAlpha"/>
<feOffset dy="4"/>
<feGaussianBlur stdDeviation="2"/>
<feComposite in2="hardAlpha" operator="out"/>
<feColorMatrix type="matrix" values="0 0 0 0 0 0 0 0 0 0 0 0 0 0 0 0 0 0 0.25 0"/>
<feBlend mode="normal" in2="BackgroundImageFix" result="effect1_dropShadow_45_1196"/>
<feBlend mode="normal" in="SourceGraphic" in2="effect1_dropShadow_45_1196" result="shape"/>
</filter>
</defs>
</svg>
