<svg width="277" height="36" viewBox="0 0 277 36" fill="none" xmlns="http://www.w3.org/2000/svg">
<mask id="mask0_5455_6255" style="mask-type:luminance" maskUnits="userSpaceOnUse" x="1" y="1" width="34" height="34">
<path d="M35 1H1V35H35V1Z" fill="white"/>
</mask>
<g mask="url(#mask0_5455_6255)">
<path d="M22.8398 21.31C22.9498 20.69 23.0598 20.12 23.1498 19.55C23.2898 18.71 23.4298 17.86 23.5398 17.02C23.5998 16.56 23.5698 16.1 23.3898 15.65C23.1198 14.96 22.5798 14.69 21.8998 14.65C21.3298 14.62 21.3398 14.64 21.2498 15.21C21.1298 15.99 20.9898 16.77 20.8498 17.54C20.6498 18.74 20.4498 19.95 20.2398 21.15C20.2298 21.21 20.1498 21.3 20.0898 21.3C19.4198 21.31 18.7498 21.3 18.0298 21.3C18.0598 21.05 18.0898 20.84 18.1298 20.62C18.3698 19.22 18.5998 17.82 18.8398 16.42C18.9198 15.95 19.0098 15.47 19.0898 15C19.1498 14.65 19.1298 14.61 18.7598 14.61C18.1298 14.61 17.4998 14.62 16.8598 14.61C16.5998 14.61 16.4898 14.71 16.4498 14.96C16.3898 15.4 16.3098 15.83 16.2398 16.26C16.0498 17.36 15.8698 18.45 15.6798 19.55C15.5998 20.05 15.5098 20.55 15.4298 21.05C15.3998 21.25 15.3198 21.31 15.1198 21.31C14.5698 21.3 14.0198 21.3 13.4698 21.31C13.2498 21.31 13.1898 21.24 13.2298 21.03C13.4198 19.97 13.5998 18.9 13.7898 17.84C13.9798 16.74 14.1698 15.65 14.3498 14.55C14.4298 14.09 14.4998 13.63 14.5698 13.17C14.5898 13 14.6698 12.92 14.8398 12.92C17.6298 12.92 20.4098 12.92 23.1998 12.95C24.0498 12.96 24.8098 13.27 25.3298 14C25.6498 14.44 25.7998 14.94 25.8098 15.47C25.8098 16.04 25.7698 16.62 25.6998 17.18C25.6098 17.87 25.4798 18.56 25.3598 19.25C25.2498 19.88 25.1398 20.51 25.0198 21.14C25.0098 21.2 24.9198 21.29 24.8698 21.3C24.1998 21.31 23.5298 21.3 22.8098 21.3L22.8398 21.31Z" fill="#303436"/>
<path d="M32.0599 11.37C31.8399 11.37 31.6299 11.37 31.4099 11.37C31.2699 11.37 31.2299 11.32 31.2099 11.18C31.1099 10.52 31.0199 9.84996 30.8899 9.18996C30.8199 8.80996 30.6899 8.43996 30.5599 8.06996C30.5299 7.98996 30.3999 7.89996 30.2999 7.87996C28.9999 7.66996 27.6899 7.48996 26.3899 7.24996C25.3899 7.06996 24.3999 6.85996 23.4299 6.58996C22.1399 6.23996 20.8699 5.84996 19.5999 5.43996C19.0899 5.27996 18.6099 5.00996 18.1099 4.80996C18.0199 4.76996 17.8799 4.76996 17.7899 4.80996C16.8499 5.15996 15.9099 5.55996 14.9599 5.88996C14.0699 6.19996 13.1599 6.45996 12.2399 6.68996C11.3399 6.91996 10.4299 7.09996 9.51989 7.27996C8.45989 7.47996 7.38989 7.65996 6.32989 7.83996C6.11989 7.87996 5.89989 7.90996 5.68989 7.91996C5.42989 7.91996 5.32989 8.07996 5.25989 8.29996C4.98989 9.21996 4.77989 10.14 4.71989 11.1C4.70989 11.29 4.63989 11.38 4.42989 11.37C4.02989 11.35 3.62989 11.36 3.22989 11.37C3.04989 11.37 2.97989 11.3 2.99989 11.14C3.04989 10.66 3.09989 10.18 3.15989 9.70996C3.30989 8.65996 3.64989 7.66996 4.02989 6.68996C4.10989 6.47996 4.25989 6.40996 4.45989 6.37996C5.38989 6.23996 6.31989 6.11996 7.23989 5.95996C8.51989 5.72996 9.79989 5.48996 11.0699 5.20996C12.1499 4.96996 13.2299 4.67996 14.2799 4.34996C15.4699 3.97996 16.6299 3.53996 17.7199 2.92996C17.8199 2.87996 17.9899 2.87996 18.0899 2.92996C19.1499 3.46996 20.2399 3.92996 21.3799 4.27996C22.4699 4.60996 23.5899 4.87996 24.6999 5.13996C25.5199 5.33996 26.3499 5.50996 27.1899 5.64996C28.4499 5.86996 29.7099 6.04996 30.9799 6.24996C31.1799 6.27996 31.3799 6.29996 31.5699 6.35996C31.6699 6.38996 31.7799 6.47996 31.8099 6.56996C32.0799 7.36996 32.3899 8.15996 32.5899 8.97996C32.7699 9.67996 32.8199 10.42 32.9299 11.14C32.9599 11.33 32.8899 11.42 32.6799 11.4C32.4699 11.38 32.2599 11.4 32.0599 11.4V11.37Z" fill="#303436"/>
<path d="M5.00023 23.04C5.63023 23.04 6.18024 23.03 6.74024 23.05C6.85024 23.05 6.98023 23.19 7.05023 23.3C7.68023 24.33 8.43023 25.27 9.21023 26.18C10.1902 27.32 11.2802 28.33 12.5002 29.21C13.6102 30 14.7902 30.63 16.1102 31C17.2202 31.31 18.3202 31.35 19.4302 31.11C20.3202 30.91 21.1502 30.58 21.9602 30.15C23.5002 29.32 24.8302 28.21 26.0402 26.95C27.1102 25.84 28.0602 24.62 28.8802 23.3C29.0002 23.11 29.1302 23.02 29.3602 23.03C29.8502 23.05 30.3402 23.03 30.8902 23.03C30.6602 23.44 30.4702 23.82 30.2402 24.17C29.7302 24.94 29.2202 25.71 28.6802 26.45C28.3302 26.93 27.9402 27.39 27.5302 27.82C26.9102 28.48 26.2702 29.12 25.6102 29.73C24.8702 30.42 24.0602 31 23.2002 31.53C22.1802 32.16 21.0902 32.65 19.9302 32.95C18.8102 33.24 17.6902 33.28 16.5502 33.07C15.6902 32.91 14.8602 32.63 14.0802 32.25C13.2902 31.86 12.5302 31.42 11.8202 30.9C10.9602 30.27 10.1202 29.59 9.37023 28.83C8.53023 27.99 7.78023 27.05 7.03023 26.12C6.60023 25.59 6.22023 25.01 5.84023 24.44C5.55023 24 5.29023 23.54 4.99023 23.03L5.00023 23.04Z" fill="#303436"/>
<path d="M4.31006 21.29C4.31006 21.16 4.31006 21.06 4.33006 20.95C4.39006 20.6 4.47006 20.25 4.50006 19.89C4.52006 19.66 4.60006 19.58 4.84006 19.58C6.45006 19.58 8.07006 19.58 9.68006 19.59C10.2801 19.59 10.7001 18.91 10.5601 18.37C10.4801 18.07 10.3201 17.97 9.96006 17.96C8.99006 17.96 8.01006 17.96 7.04006 17.96C6.24006 17.96 5.69006 17.51 5.42006 16.91C5.19006 16.4 5.19006 15.87 5.30006 15.32C5.47006 14.55 5.85006 13.92 6.47006 13.44C6.88006 13.12 7.36006 12.92 7.90006 12.92C9.56006 12.92 11.2101 12.92 12.8701 12.92C13.1201 12.92 13.1601 12.99 13.1201 13.22C13.0501 13.58 12.9801 13.94 12.9401 14.3C12.9101 14.53 12.8301 14.63 12.5801 14.63C11.1601 14.62 9.74006 14.64 8.31006 14.62C7.75006 14.61 7.21006 15.05 7.28006 15.69C7.31006 15.94 7.44006 16.13 7.69006 16.19C7.82006 16.22 7.95006 16.23 8.09006 16.23C9.05006 16.23 10.0201 16.23 10.9801 16.25C11.6701 16.26 12.1201 16.65 12.4101 17.24C12.7001 17.82 12.6601 18.43 12.5101 19.04C12.3101 19.87 11.8501 20.51 11.1301 20.97C10.7801 21.19 10.4001 21.3 10.0001 21.31C8.16006 21.32 6.32006 21.31 4.49006 21.31C4.45006 21.31 4.41006 21.3 4.33006 21.29H4.31006Z" fill="#303436"/>
<path d="M26.3899 21.2901C26.4799 20.7501 26.5699 20.2501 26.6599 19.7401C26.6899 19.5801 26.8099 19.5901 26.9199 19.5901C27.5499 19.5901 28.1799 19.5901 28.8199 19.5901C29.6499 19.5901 30.4799 19.5601 31.3099 19.6001C31.8799 19.6301 32.3999 18.9601 32.1899 18.3101C32.1099 18.0401 31.8599 17.9801 31.6099 17.9801C30.6999 17.9801 29.7999 17.9801 28.8899 17.9801C28.3199 17.9801 27.8099 17.8601 27.4099 17.4101C26.9299 16.8801 26.8399 16.2501 26.9299 15.5701C27.0299 14.8501 27.3099 14.2101 27.8399 13.7001C28.3199 13.2301 28.8799 12.9401 29.5699 12.9301C31.2299 12.9301 32.8799 12.9301 34.5399 12.9301C34.7599 12.9301 34.8099 13.0001 34.7599 13.2201C34.6799 13.5701 34.6399 13.9201 34.5799 14.2801C34.5299 14.6001 34.4899 14.6401 34.1699 14.6401C32.7499 14.6401 31.3299 14.6401 29.8999 14.6401C29.4099 14.6401 29.0399 14.9301 28.9299 15.4001C28.8199 15.8601 29.0599 16.1901 29.5399 16.2201C29.8599 16.2401 30.1899 16.2201 30.5099 16.2201C31.2199 16.2201 31.9199 16.2201 32.6299 16.2401C33.5099 16.2701 34.1299 16.9401 34.2299 17.7501C34.3799 18.9601 34.0099 20.0001 33.0399 20.7801C32.6299 21.1101 32.1599 21.3001 31.6399 21.3001C29.9499 21.3101 28.2599 21.3001 26.5699 21.3001C26.5199 21.3001 26.4699 21.2901 26.3799 21.2801L26.3899 21.2901Z" fill="#303436"/>
<path d="M4.45992 12.9801C4.32992 13.7701 4.19992 14.5501 4.06992 15.3401C3.94992 16.0601 3.84992 16.7801 3.71992 17.5001C3.57992 18.3201 3.41992 19.1301 3.26992 19.9501C3.19992 20.3201 3.13992 20.7001 3.07992 21.0801C3.05992 21.2501 2.98992 21.3201 2.80992 21.3201C2.33992 21.3201 1.85992 21.3201 1.38992 21.3201C1.19992 21.3201 1.13992 21.26 1.16992 21.0701C1.39992 19.7601 1.62992 18.4601 1.84992 17.1501C2.00992 16.2001 2.15992 15.2501 2.31992 14.3001C2.37992 13.9201 2.44992 13.5301 2.53992 13.1501C2.55992 13.0701 2.66992 12.9501 2.73992 12.9501C3.27992 12.9301 3.81992 12.9501 4.35992 12.9501C4.38992 12.9501 4.41992 12.9701 4.45992 12.9901V12.9801Z" fill="#303436"/>
<path d="M8.1301 10.67C8.2301 10.64 8.3001 10.61 8.3801 10.61C8.5301 10.61 8.6801 10.62 8.8301 10.6C8.9001 10.59 9.0201 10.49 9.0101 10.46C9.0001 10.38 8.9301 10.29 8.8501 10.25C8.8001 10.21 8.6901 10.25 8.6301 10.23C8.5501 10.19 8.4401 10.11 8.4301 10.04C8.4101 9.81996 8.4201 9.58996 8.4301 9.36996C8.4301 9.30996 8.5001 9.25996 8.5401 9.20996C8.6001 9.24996 8.6601 9.29996 8.7101 9.33996C8.7801 9.38996 8.8501 9.47996 8.9301 9.49996C9.0701 9.52996 9.2101 9.49996 9.3501 9.50996C9.4801 9.50996 9.5701 9.48996 9.6001 9.33996C9.6001 9.28996 9.7201 9.21996 9.7701 9.22996C9.8201 9.22996 9.9001 9.32996 9.9001 9.38996C9.9201 9.58996 9.9001 9.78996 9.9001 9.98996C9.9001 10.18 9.8101 10.27 9.6201 10.25C9.5901 10.25 9.5401 10.24 9.5201 10.25C9.4401 10.31 9.3701 10.37 9.3001 10.43C9.3701 10.49 9.4301 10.6 9.5101 10.61C9.6701 10.64 9.8401 10.61 10.0101 10.63C10.0501 10.63 10.0801 10.68 10.1201 10.71C10.0901 10.74 10.0501 10.8 10.0201 10.8C9.4101 10.8 8.7901 10.8 8.1801 10.78C8.1701 10.78 8.1601 10.76 8.1001 10.69L8.1301 10.67ZM9.1601 10.05C9.2301 10.05 9.3101 10.05 9.3801 10.05C9.5301 10.05 9.6001 9.98996 9.6001 9.82996C9.6001 9.66996 9.5001 9.66996 9.3801 9.66996C9.2201 9.66996 9.0501 9.64996 8.8901 9.66996C8.8201 9.67996 8.7301 9.78996 8.7301 9.83996C8.7301 9.90996 8.8201 9.99996 8.8901 10.03C8.9701 10.06 9.0701 10.03 9.1601 10.03V10.05Z" fill="#303436"/>
<path d="M12.4099 10.64C12.2399 10.81 10.6899 10.83 10.4199 10.7C10.5099 10.66 10.5699 10.62 10.6199 10.61C10.7599 10.6 10.8999 10.61 11.0399 10.61C11.1599 10.61 11.2799 10.61 11.2799 10.44C11.2799 10.27 11.1799 10.23 11.0299 10.23C10.9799 10.23 10.9199 10.25 10.8799 10.23C10.8099 10.18 10.6999 10.12 10.6999 10.06C10.6799 9.82995 10.6799 9.58995 10.6999 9.35995C10.6999 9.30995 10.7699 9.22995 10.8199 9.20995C10.8499 9.19995 10.9599 9.25995 10.9599 9.29995C10.9999 9.48995 11.1299 9.49995 11.2799 9.49995C11.3899 9.49995 11.4999 9.49995 11.5999 9.49995C11.7299 9.49995 11.8399 9.48995 11.8799 9.31995C11.8899 9.26995 11.9799 9.23995 12.0399 9.19995C12.0799 9.25995 12.1599 9.31995 12.1599 9.37995C12.1799 9.57995 12.1599 9.77995 12.1599 9.97995C12.1599 10.18 12.0799 10.25 11.8899 10.23C11.8399 10.23 11.7799 10.21 11.7399 10.23C11.6799 10.28 11.5899 10.35 11.5899 10.41C11.5899 10.47 11.6699 10.58 11.7299 10.59C11.8699 10.62 12.0099 10.59 12.1499 10.6C12.2199 10.6 12.2999 10.62 12.3699 10.63L12.4099 10.64ZM11.4299 9.66995C11.3499 9.66995 11.2599 9.64995 11.1799 9.66995C11.0999 9.69995 11.0499 9.77995 10.9799 9.82995C11.0399 9.89995 11.0999 10.02 11.1699 10.03C11.3399 10.06 11.5199 10.06 11.6899 10.03C11.7599 10.02 11.8099 9.88995 11.8699 9.81995C11.7999 9.76995 11.7399 9.69995 11.6699 9.66995C11.5999 9.63995 11.5099 9.66995 11.4199 9.66995H11.4299Z" fill="#303436"/>
<path d="M14.2902 9.69999C14.3802 10.04 14.3102 10.28 13.9702 10.39C13.9402 10.4 13.8902 10.48 13.9002 10.5C13.9202 10.54 13.9702 10.6 14.0202 10.6C14.1602 10.61 14.3002 10.6 14.4402 10.61C14.5302 10.61 14.6102 10.65 14.7002 10.67C14.7002 10.7 14.7002 10.73 14.7002 10.76C14.6302 10.78 14.5602 10.8 14.4902 10.81C13.9702 10.81 13.4502 10.82 12.9302 10.81C12.8602 10.81 12.7902 10.74 12.7202 10.71C12.8002 10.68 12.8702 10.62 12.9502 10.62C13.1002 10.6 13.2502 10.62 13.4002 10.61C13.4402 10.61 13.5102 10.57 13.5102 10.55C13.5102 10.5 13.4802 10.44 13.4502 10.41C13.1002 10.14 13.1002 10.14 13.1302 9.70999C13.0802 9.69999 13.0202 9.69999 12.9702 9.66999C12.9402 9.64999 12.9102 9.58999 12.9102 9.54999C12.9102 9.52999 12.9702 9.48999 13.0002 9.48999C13.4902 9.48999 13.9802 9.48999 14.4702 9.48999C14.5102 9.48999 14.5402 9.53999 14.5802 9.56999C14.5402 9.59999 14.5102 9.63999 14.4702 9.66999C14.4402 9.68999 14.3902 9.68999 14.3202 9.69999H14.2902ZM13.7402 10.23C13.9202 10.22 14.0302 10.12 14.0202 9.92999C14.0102 9.75999 13.8802 9.66999 13.7102 9.66999C13.5202 9.66999 13.4102 9.77999 13.4102 9.95999C13.4102 10.15 13.5602 10.22 13.7402 10.23Z" fill="#303436"/>
<path d="M22.6602 10.64C22.8202 10.42 22.9602 10.24 23.0902 10.07C23.1202 10.03 23.1402 9.99003 23.1602 9.94003C23.3302 9.51003 23.2702 9.41003 22.8402 9.34003C22.8002 9.34003 22.7602 9.30003 22.7102 9.28003C22.8502 9.18003 23.3802 9.14003 23.4802 9.22003C23.5202 9.26003 23.5302 9.34003 23.5602 9.39003C23.5902 9.44003 23.6402 9.51003 23.6802 9.51003C23.7302 9.51003 23.7902 9.45003 23.8302 9.41003C23.8602 9.37003 23.8502 9.31003 23.8802 9.27003C23.9102 9.22003 23.9702 9.19003 24.0102 9.16003C24.0402 9.20003 24.1002 9.24003 24.1002 9.29003C24.1002 9.88003 24.1002 10.47 24.1002 11.06C24.1002 11.1 24.0402 11.14 24.0002 11.18C23.9602 11.14 23.8902 11.1 23.8802 11.05C23.8602 10.95 23.8802 10.85 23.8602 10.75C23.8202 10.61 23.7902 10.39 23.7002 10.36C23.5102 10.29 23.2702 10.29 23.1002 10.46C23.0402 10.52 22.9702 10.6 22.9002 10.64C22.8502 10.67 22.7802 10.64 22.6702 10.64H22.6602ZM23.5602 10.21C23.5602 10.21 23.6302 10.21 23.6702 10.21C23.7302 10.11 23.8302 10.02 23.8402 9.92003C23.8402 9.86003 23.7302 9.78003 23.6602 9.72003C23.5802 9.82003 23.4802 9.91003 23.4202 10.02C23.4002 10.05 23.5102 10.15 23.5602 10.21Z" fill="#303436"/>
<path d="M12.6899 26.04C12.7699 25.87 12.8599 25.71 12.9399 25.54C12.9899 25.44 13.0199 25.33 13.0999 25.26C13.1599 25.2 13.2799 25.16 13.3599 25.18C13.4099 25.18 13.4699 25.32 13.4699 25.39C13.4299 25.74 13.3799 26.1 13.3199 26.45C13.3199 26.49 13.2499 26.52 13.2099 26.56C13.1699 26.51 13.1099 26.47 13.1099 26.42C13.1199 26.22 13.1499 26.02 13.1799 25.83C13.1899 25.75 13.1999 25.67 13.1599 25.57C13.1199 25.64 13.0699 25.71 13.0299 25.78C12.9099 26 12.8099 26.22 12.6799 26.44C12.6499 26.49 12.5699 26.51 12.5099 26.55C12.4799 26.49 12.4199 26.43 12.4099 26.37C12.3899 26.21 12.3899 26.04 12.3799 25.87C12.3799 25.8 12.3599 25.72 12.3499 25.65C12.3199 25.65 12.2899 25.65 12.2699 25.65C12.2099 25.87 12.1499 26.08 12.0899 26.3C12.0699 26.36 12.0699 26.42 12.0399 26.47C12.0099 26.51 11.9599 26.53 11.9099 26.56C11.8899 26.52 11.8399 26.47 11.8499 26.44C11.9499 26.04 12.0499 25.64 12.1599 25.24C12.1699 25.2 12.2899 25.15 12.3399 25.17C12.4099 25.2 12.5099 25.27 12.5299 25.33C12.5699 25.47 12.5599 25.62 12.5699 25.77C12.5699 25.86 12.5899 25.94 12.5999 26.03C12.6299 26.03 12.6599 26.04 12.6899 26.05V26.04Z" fill="#303436"/>
<path d="M18.2601 9.23994C18.3201 9.21994 18.3701 9.18994 18.4301 9.18994C18.6501 9.18994 18.8601 9.18994 19.0801 9.18994C19.2501 9.18994 19.3301 9.26994 19.3201 9.43994C19.3201 9.45994 19.3201 9.46994 19.3201 9.48994C19.3201 10.0199 19.3401 9.99994 18.8501 9.99994C18.6901 9.99994 18.5501 10.0299 18.5301 10.2299C18.5101 10.4599 18.6001 10.5499 18.8301 10.5399C19.0201 10.5399 19.2101 10.5399 19.4001 10.5399C19.4001 10.5599 19.4001 10.5799 19.4101 10.6099C19.3701 10.6399 19.3301 10.6899 19.2801 10.6999C19.0301 10.7199 18.7801 10.7499 18.5401 10.7499C18.3301 10.7499 18.2201 10.6399 18.2401 10.4199C18.2401 10.3999 18.2401 10.3899 18.2401 10.3699C18.2401 9.84994 18.2401 9.84994 18.7401 9.83994C18.9001 9.83994 18.9901 9.79994 18.9901 9.61994C18.9901 9.42994 18.9101 9.36994 18.7301 9.37994C18.5701 9.37994 18.4201 9.37994 18.2601 9.36994V9.26994V9.23994Z" fill="#303436"/>
<path d="M13.0298 24.33C13.0698 24.05 13.1098 23.78 13.1598 23.5C13.1598 23.46 13.1998 23.41 13.2298 23.41C13.4498 23.4 13.6798 23.39 13.8998 23.39C14.0098 23.39 14.1198 23.42 14.2198 23.39C14.4798 23.3 14.6398 23.39 14.6098 23.67C14.5898 23.86 14.5698 24.05 14.5198 24.23C14.5098 24.29 14.4098 24.32 14.3498 24.36C14.3298 24.29 14.2898 24.23 14.2898 24.16C14.2898 24.03 14.3398 23.9 14.3498 23.77C14.3498 23.72 14.2998 23.61 14.2798 23.61C14.2098 23.61 14.0998 23.64 14.0698 23.69C13.9898 23.85 13.9498 24.03 13.8798 24.2C13.8498 24.26 13.7798 24.31 13.7298 24.36C13.6998 24.29 13.6498 24.23 13.6598 24.16C13.6598 24.04 13.6998 23.91 13.7098 23.79C13.7098 23.73 13.6698 23.66 13.6498 23.6C13.5698 23.63 13.4498 23.64 13.4198 23.69C13.3498 23.85 13.3298 24.04 13.2598 24.21C13.2298 24.28 13.1498 24.33 13.0998 24.39C13.0798 24.37 13.0498 24.35 13.0298 24.34V24.33Z" fill="#303436"/>
<path d="M21.26 28.19C21.25 28.29 21.23 28.48 21.19 28.65C21.18 28.7 21.1 28.74 21.05 28.78C21.02 28.72 20.96 28.67 20.97 28.61C20.97 28.47 21.02 28.33 21.01 28.19C21.01 28.11 20.94 28.04 20.91 27.97C20.83 28.02 20.72 28.06 20.69 28.14C20.63 28.27 20.62 28.43 20.57 28.57C20.54 28.65 20.45 28.71 20.39 28.78C20.37 28.7 20.33 28.61 20.34 28.53C20.34 28.42 20.41 28.32 20.41 28.22C20.41 28.14 20.36 28.06 20.33 27.98C20.25 28.02 20.13 28.05 20.1 28.11C20.03 28.26 20.01 28.43 19.95 28.58C19.92 28.66 19.84 28.71 19.78 28.78C19.75 28.7 19.72 28.63 19.71 28.55C19.71 28.5 19.71 28.43 19.74 28.38C19.82 28.18 19.7 27.86 20.01 27.8C20.22 27.76 20.44 27.84 20.66 27.85C20.72 27.85 20.78 27.85 20.84 27.82C21.16 27.69 21.28 27.77 21.26 28.18V28.19Z" fill="#303436"/>
<path d="M20.2301 26.42C20.2501 26.23 20.2801 26.1 20.2801 25.97C20.2801 25.91 20.2301 25.81 20.1901 25.8C20.1401 25.79 20.0401 25.83 20.0101 25.88C19.9501 25.99 19.9301 26.11 19.8901 26.23C19.8601 26.32 19.8501 26.41 19.8101 26.49C19.7901 26.53 19.7201 26.55 19.6701 26.56C19.6501 26.56 19.6001 26.49 19.6001 26.45C19.6401 26.2 19.6801 25.94 19.7301 25.69C19.7301 25.65 19.8101 25.59 19.8201 25.6C20.0501 25.73 20.3101 25.43 20.5501 25.65C20.5801 25.68 20.7001 25.63 20.7801 25.6C21.0801 25.5 21.2401 25.63 21.1901 25.94C21.1701 26.09 21.1401 26.24 21.0901 26.38C21.0701 26.45 20.9901 26.51 20.9301 26.57C20.9001 26.49 20.8401 26.41 20.8401 26.32C20.8401 26.21 20.9001 26.1 20.9101 25.98C20.9101 25.91 20.8601 25.84 20.8301 25.77C20.7601 25.81 20.6601 25.83 20.6301 25.88C20.5601 26.04 20.5201 26.22 20.4601 26.39C20.4401 26.46 20.3701 26.51 20.3301 26.56C20.2901 26.5 20.2401 26.45 20.2301 26.43V26.42Z" fill="#303436"/>
<path d="M17.8602 26.5C17.6502 26.57 17.4402 26.6 17.3202 26.36C17.2202 26.15 17.3502 25.76 17.5802 25.64C17.7102 25.57 17.8802 25.54 18.0302 25.54C18.2402 25.54 18.3502 25.63 18.2802 25.87C18.2102 26.12 18.1802 26.37 18.1102 26.62C18.0202 26.94 17.7202 27.09 17.4002 26.99C17.3602 26.98 17.3402 26.93 17.3102 26.9C17.3502 26.87 17.3802 26.83 17.4202 26.82C17.4902 26.8 17.5802 26.82 17.6402 26.8C17.7402 26.75 17.8202 26.66 17.9202 26.59C17.9002 26.56 17.8802 26.53 17.8602 26.5ZM18.1202 25.93C18.0102 25.83 17.9502 25.78 17.9002 25.72C17.7902 25.84 17.6702 25.96 17.5902 26.1C17.5702 26.14 17.7002 26.26 17.7602 26.34C17.8702 26.21 17.9802 26.09 18.1202 25.93Z" fill="#303436"/>
<path d="M26.7599 9.69996C26.7599 10.05 26.5399 10.26 26.1699 10.26C25.8299 10.26 25.5699 10.02 25.5799 9.68996C25.5799 9.35996 25.8399 9.12996 26.1899 9.13996C26.5299 9.13996 26.7599 9.35996 26.7599 9.69996ZM26.4699 9.72996C26.4699 9.49996 26.3199 9.33996 26.1599 9.34996C25.9399 9.36996 25.9099 9.54996 25.8899 9.70996C25.8699 9.88996 26.0199 10.04 26.1899 10.03C26.3999 10.03 26.4599 9.87996 26.4699 9.71996V9.72996Z" fill="#303436"/>
<path d="M19.9498 10.18C19.9498 10.45 19.9498 10.73 19.9498 11C19.9498 11.06 19.8598 11.12 19.8098 11.19C19.7498 11.13 19.6498 11.07 19.6398 11C19.6298 10.44 19.6298 9.89002 19.6398 9.33002C19.6398 9.27002 19.7498 9.21001 19.8098 9.14001C19.8598 9.20001 19.9398 9.26002 19.9498 9.33002C19.9698 9.61002 19.9498 9.89002 19.9498 10.18Z" fill="#303436"/>
<path d="M28.0902 9.20004H29.5202C29.5202 9.20004 29.5202 9.26004 29.5302 9.28004C29.4402 9.30004 29.3402 9.31004 29.2502 9.33004C29.1902 9.34004 29.1302 9.37004 29.0802 9.40004C29.1102 9.46004 29.1302 9.54004 29.1702 9.58004C29.2402 9.64004 29.3302 9.66004 29.4102 9.70004C29.4702 9.73004 29.5302 9.76004 29.5802 9.79004C29.5702 9.83004 29.5602 9.86004 29.5502 9.90004C29.4002 9.86004 29.2402 9.86004 29.1102 9.78004C28.9002 9.65004 28.7302 9.60004 28.5202 9.78004C28.3502 9.92004 28.1502 9.90004 27.9702 9.78004C28.1102 9.73004 28.2402 9.70004 28.3402 9.63004C28.4202 9.58004 28.4602 9.47004 28.5202 9.39004C28.4402 9.36004 28.3602 9.34004 28.2802 9.31004C28.2102 9.29004 28.1402 9.27004 28.0702 9.25004C28.0702 9.22004 28.0702 9.20004 28.0802 9.17004L28.0902 9.20004Z" fill="#303436"/>
<path d="M7.27004 10.34C7.76005 10.34 8.00005 10.65 7.80005 11.03C7.67005 11.27 7.42006 11.28 7.19006 11.27C6.97006 11.26 6.76004 11.19 6.68004 10.95C6.56004 10.59 6.80004 10.35 7.27004 10.35V10.34ZM7.32005 10.47C7.32005 10.47 7.24005 10.47 7.20005 10.47C7.12005 10.58 7.00006 10.67 6.98006 10.79C6.94006 10.96 7.08005 11.07 7.24005 11.08C7.41005 11.08 7.57005 10.99 7.55005 10.81C7.54005 10.69 7.40005 10.58 7.31005 10.47H7.32005Z" fill="#303436"/>
<path d="M20.8799 10.3199C20.7699 10.4599 20.6899 10.5699 20.5999 10.6599C20.5699 10.6899 20.4899 10.6799 20.4299 10.6899C20.4299 10.6399 20.4299 10.5799 20.4499 10.5299C20.5299 10.3499 20.6299 10.1799 20.6999 9.99995C20.7599 9.81995 20.7599 9.64995 20.4899 9.62995C20.4599 9.62995 20.4299 9.58995 20.3999 9.55995C20.5799 9.40995 21.1599 9.40995 21.3499 9.54995C21.3399 9.56995 21.3299 9.59995 21.3199 9.60995C21.0099 9.74995 20.9599 9.86995 21.1199 10.1899C21.1699 10.2899 21.2399 10.3899 21.2899 10.4999C21.3199 10.5599 21.3099 10.6399 21.3199 10.7099C21.2599 10.67 21.1799 10.6499 21.1299 10.5999C21.0499 10.5199 20.9799 10.4299 20.8899 10.3399L20.8799 10.3199Z" fill="#303436"/>
<path d="M21.3 9.96003C21.39 9.87003 21.54 9.50003 21.59 9.33003C21.61 9.27003 21.68 9.22003 21.73 9.16003C21.77 9.22003 21.85 9.28003 21.85 9.34003C21.86 9.89003 21.86 10.44 21.85 10.98C21.85 11.05 21.76 11.11 21.71 11.17C21.67 11.1 21.6 11.04 21.59 10.97C21.57 10.84 21.57 10.71 21.57 10.57C21.57 10.15 21.57 10.15 21.29 9.96003H21.3Z" fill="#303436"/>
<path d="M28.8199 10.41C28.8899 10.41 28.9699 10.41 29.0399 10.43C29.3099 10.51 29.4599 10.69 29.4299 10.9C29.4099 11.1 29.1999 11.28 28.9299 11.31C28.7999 11.32 28.6699 11.31 28.5399 11.27C28.3299 11.21 28.1599 11.09 28.1699 10.84C28.1799 10.64 28.3899 10.46 28.6399 10.43C28.6999 10.43 28.7599 10.43 28.8099 10.43L28.8199 10.41ZM28.8199 10.6C28.6199 10.6 28.4999 10.69 28.4899 10.87C28.4899 11.06 28.6499 11.14 28.8199 11.13C28.9899 11.13 29.1499 11.04 29.1399 10.86C29.1399 10.69 28.9999 10.58 28.8199 10.6Z" fill="#303436"/>
<path d="M14.37 25.53C14.61 25.53 14.66 25.59 14.62 25.82C14.59 26.02 14.56 26.21 14.53 26.41C14.51 26.53 14.46 26.59 14.32 26.51C14.27 26.48 14.17 26.51 14.12 26.53C13.86 26.67 13.66 26.56 13.64 26.26C13.62 25.85 13.94 25.52 14.37 25.52V25.53ZM14.35 25.84C14.35 25.84 14.29 25.74 14.24 25.73C14.12 25.71 13.87 26.01 13.9 26.16C13.91 26.24 14 26.34 14.07 26.36C14.21 26.39 14.34 26.17 14.35 25.84Z" fill="#303436"/>
<path d="M14.8101 24.02C14.8201 23.61 15.2901 23.27 15.6901 23.36C15.8201 23.39 15.8701 23.45 15.8501 23.58C15.8101 23.8 15.7701 24.02 15.7101 24.24C15.7001 24.29 15.5701 24.36 15.5601 24.35C15.4401 24.24 15.3501 24.31 15.2301 24.35C15.0001 24.43 14.7901 24.26 14.8001 24.02H14.8101ZM15.4501 23.48C15.3401 23.58 15.2201 23.64 15.1901 23.72C15.1401 23.84 15.1501 23.98 15.1501 24.12C15.1501 24.14 15.2601 24.18 15.2701 24.17C15.3501 24.08 15.4301 23.99 15.5001 23.88C15.5401 23.82 15.5601 23.74 15.5601 23.67C15.5601 23.61 15.5001 23.56 15.4601 23.48H15.4501Z" fill="#303436"/>
<path d="M15.7198 27.56C15.6298 27.56 15.5698 27.54 15.5198 27.56C15.4198 27.6 15.3398 27.65 15.2398 27.7C15.2898 27.78 15.3298 27.86 15.3898 27.93C15.4298 27.98 15.4998 28.01 15.5498 28.05C15.7798 28.27 15.7498 28.61 15.4498 28.72C15.2798 28.78 15.0798 28.75 14.8898 28.74C14.8598 28.74 14.8298 28.66 14.7998 28.62C14.8398 28.59 14.8898 28.54 14.9298 28.54C15.0398 28.53 15.1698 28.56 15.2698 28.54C15.4498 28.5 15.4698 28.35 15.3398 28.23C15.2898 28.18 15.2198 28.14 15.1598 28.09C15.0098 27.99 14.8898 27.87 14.9498 27.68C15.0098 27.48 15.1598 27.36 15.3698 27.35C15.4998 27.35 15.6798 27.28 15.7198 27.54V27.56Z" fill="#303436"/>
<path d="M16.7099 26.52C16.5299 26.54 16.3599 26.6 16.2499 26.55C16.0699 26.47 16.0699 26.27 16.1099 26.09C16.2199 25.63 16.5999 25.44 17.0899 25.62C17.0499 25.9 17.0099 26.19 16.9499 26.46C16.9499 26.5 16.7699 26.5 16.7099 26.51V26.52ZM16.7899 25.84C16.7899 25.84 16.7299 25.74 16.6799 25.73C16.5399 25.71 16.3499 25.95 16.3699 26.15C16.3699 26.23 16.4499 26.34 16.5099 26.36C16.6399 26.39 16.7899 26.12 16.7799 25.84H16.7899Z" fill="#303436"/>
<path d="M20.5302 24.37C20.5302 24.37 20.4802 24.37 20.4602 24.37C20.3802 24.33 20.3002 24.28 20.2202 24.23C20.3002 24.21 20.3902 24.2 20.4702 24.17C20.5902 24.13 20.7002 24.09 20.8202 24.05C20.7602 23.96 20.7102 23.86 20.6502 23.77C20.5702 23.65 20.4202 23.56 20.4002 23.43C20.3802 23.32 20.4602 23.12 20.5402 23.08C20.7202 23.01 20.9302 23.01 21.1302 23C21.1402 23 21.1802 23.05 21.1802 23.07C21.1702 23.1 21.1402 23.14 21.1102 23.16C21.0802 23.17 21.0402 23.16 21.0102 23.16C20.8902 23.2 20.7802 23.24 20.6702 23.28C20.7302 23.38 20.7702 23.51 20.8602 23.56C21.0602 23.69 21.1802 23.84 21.1102 24.07C21.0402 24.3 20.8402 24.37 20.6202 24.37C20.6002 24.37 20.5702 24.37 20.5502 24.37H20.5302Z" fill="#303436"/>
<path d="M17.83 24.3701C17.56 24.3701 17.38 24.2001 17.39 23.9401C17.39 23.6201 17.7 23.3201 18.01 23.3401C18.25 23.3501 18.41 23.5201 18.41 23.7601C18.41 24.1101 18.16 24.3801 17.83 24.3701ZM17.59 23.9001C17.7 24.0301 17.76 24.1501 17.85 24.1701C17.98 24.2101 18.14 23.9901 18.12 23.7801C18.12 23.6901 18.01 23.6101 17.94 23.5301C17.84 23.6401 17.73 23.7501 17.59 23.9001Z" fill="#303436"/>
<path d="M6.12988 9.27005C6.29988 9.15005 7.00988 9.15005 7.21988 9.27005C7.16988 9.30005 7.12988 9.33005 7.08988 9.34005C6.82988 9.40005 6.76988 9.54005 6.92988 9.75005C6.98988 9.84005 7.08988 9.90005 7.15988 9.98005C7.19988 10.0301 7.20988 10.1001 7.22988 10.1601C7.20988 10.1601 7.18988 10.1801 7.15988 10.1901C7.07988 10.1501 6.97988 10.1301 6.92988 10.0601C6.74988 9.84005 6.59988 9.87005 6.44988 10.0801C6.41988 10.1201 6.36988 10.1501 6.32988 10.1601C6.26988 10.1801 6.19988 10.1701 6.12988 10.1801C6.14988 10.1201 6.16988 10.0501 6.20988 10.0001C6.26988 9.92005 6.35988 9.86005 6.40988 9.79005C6.57988 9.56005 6.51988 9.42005 6.24988 9.35005C6.21988 9.35005 6.18988 9.33005 6.15988 9.32005C6.14988 9.32005 6.14988 9.29005 6.13988 9.28005L6.12988 9.27005Z" fill="#303436"/>
<path d="M22.0298 10.14C22.0298 9.87003 22.0298 9.61002 22.0298 9.34002C22.0298 9.27002 22.1098 9.21002 22.1598 9.15002C22.1998 9.22002 22.2798 9.28003 22.2898 9.35003C22.2998 9.90003 22.2998 10.45 22.2898 11C22.2898 11.06 22.1998 11.13 22.1598 11.19C22.1198 11.12 22.0398 11.06 22.0398 10.99C22.0298 10.71 22.0398 10.42 22.0398 10.14H22.0298Z" fill="#303436"/>
<path d="M11.03 23.96C11.03 23.58 11.27 23.33 11.61 23.33C11.86 23.33 12.01 23.5 12.01 23.76C12.01 24.12 11.77 24.36 11.43 24.36C11.15 24.36 11.02 24.24 11.02 23.95L11.03 23.96ZM11.85 23.79C11.72 23.67 11.65 23.57 11.56 23.54C11.42 23.5 11.27 23.71 11.27 23.93C11.27 24.06 11.3 24.23 11.46 24.17C11.6 24.12 11.69 23.95 11.85 23.79Z" fill="#303436"/>
<path d="M24.2901 10.16C24.2901 9.90003 24.2901 9.63003 24.2901 9.37003C24.2901 9.30003 24.3801 9.23003 24.4201 9.16003C24.4601 9.23003 24.5501 9.29003 24.5501 9.36003C24.5601 9.91003 24.5601 10.45 24.5501 11C24.5501 11.07 24.4701 11.13 24.4301 11.2C24.3801 11.13 24.3001 11.06 24.2901 10.99C24.2701 10.72 24.2901 10.44 24.2901 10.17V10.16Z" fill="#303436"/>
<path d="M23.1599 26.52C23.1799 26.35 23.2099 26.18 23.2099 26.01C23.2099 25.93 23.1599 25.85 23.1299 25.77C23.0499 25.81 22.9299 25.84 22.8999 25.91C22.8299 26.06 22.8099 26.23 22.7499 26.38C22.7199 26.45 22.6299 26.5 22.5599 26.56C22.5399 26.48 22.4999 26.39 22.5099 26.32C22.5399 26.12 22.5899 25.93 22.6399 25.74C22.6499 25.69 22.7099 25.61 22.7499 25.6C22.9399 25.58 23.1299 25.56 23.3099 25.6C23.3899 25.62 23.5099 25.76 23.5099 25.85C23.5099 26.05 23.4699 26.26 23.4099 26.46C23.3999 26.52 23.2999 26.56 23.2399 26.6C23.2199 26.58 23.1899 26.56 23.1699 26.53L23.1599 26.52Z" fill="#303436"/>
<path d="M19.23 24.33C19.27 24.15 19.31 23.97 19.33 23.79C19.33 23.73 19.26 23.6 19.23 23.6C19.15 23.6 19.02 23.64 18.99 23.71C18.92 23.86 18.91 24.03 18.85 24.18C18.82 24.25 18.74 24.29 18.69 24.34C18.66 24.27 18.61 24.21 18.62 24.14C18.65 23.93 18.69 23.73 18.74 23.53C18.77 23.41 18.82 23.34 18.97 23.39C19.06 23.41 19.16 23.39 19.25 23.37C19.51 23.32 19.63 23.43 19.59 23.7C19.57 23.86 19.55 24.01 19.52 24.17C19.49 24.34 19.4 24.39 19.23 24.33Z" fill="#303436"/>
<path d="M21.8799 26.59C21.6099 26.59 21.4199 26.46 21.3899 26.27C21.3499 26.01 21.5499 25.64 21.8099 25.58C21.9399 25.55 22.0999 25.56 22.2099 25.62C22.3799 25.7 22.3499 25.99 22.1799 26.07C22.0899 26.11 21.9899 26.12 21.8999 26.15C21.8399 26.18 21.7799 26.24 21.7299 26.28C21.7999 26.32 21.8599 26.36 21.9299 26.39C21.9499 26.39 21.9799 26.38 21.9999 26.39C22.0499 26.41 22.0999 26.44 22.1599 26.46C22.1099 26.5 22.0699 26.54 22.0099 26.57C21.9699 26.59 21.9099 26.59 21.8899 26.59H21.8799ZM22.1299 25.82C22.0099 25.77 21.9399 25.71 21.8899 25.72C21.8299 25.74 21.7999 25.82 21.7499 25.87C21.7999 25.9 21.8599 25.96 21.9099 25.96C21.9699 25.96 22.0199 25.89 22.1299 25.82Z" fill="#303436"/>
<path d="M15.8601 25.93C15.8301 26.05 15.7901 26.26 15.7301 26.45C15.7201 26.49 15.6401 26.52 15.5901 26.55C15.5601 26.5 15.5101 26.44 15.5101 26.39C15.5201 26.24 15.5701 26.1 15.5801 25.95C15.5801 25.89 15.5501 25.79 15.5001 25.76C15.4501 25.74 15.3401 25.78 15.3101 25.83C15.2301 25.98 15.2001 26.15 15.1301 26.3C15.0901 26.38 15.0201 26.45 14.9601 26.53C14.9401 26.44 14.8901 26.35 14.8901 26.27C14.8901 26.13 14.9301 25.99 14.9501 25.85C14.9801 25.66 15.0101 25.49 15.2801 25.61C15.3301 25.63 15.4201 25.59 15.4901 25.57C15.7301 25.5 15.8601 25.59 15.8701 25.92L15.8601 25.93Z" fill="#303436"/>
<path d="M15.9301 27.78C16.3901 27.78 16.0901 28.25 16.3401 28.33C16.5601 28.22 16.4301 27.82 16.8401 27.77C16.7501 27.98 16.7001 28.15 16.6101 28.3C16.4401 28.58 16.2601 28.86 16.0601 29.12C16.0201 29.17 15.9101 29.17 15.8301 29.19C15.8601 29.11 15.8701 29.01 15.9301 28.96C16.0801 28.83 16.1401 28.71 16.0801 28.51C16.0101 28.29 15.9901 28.06 15.9301 27.78Z" fill="#303436"/>
<path d="M18.8799 28.52C18.9799 28.55 19.0899 28.58 19.1899 28.61C19.2499 28.63 19.3099 28.65 19.3699 28.67C19.3099 28.71 19.2599 28.79 19.1899 28.8C18.9899 28.83 18.7899 28.84 18.6599 28.63C18.5599 28.46 18.6099 28.15 18.7599 27.96C18.9099 27.77 19.1099 27.75 19.3199 27.8C19.3999 27.82 19.5099 27.95 19.5099 28.02C19.4999 28.12 19.4099 28.25 19.3199 28.3C19.1899 28.38 19.0299 28.39 18.8899 28.44C18.8899 28.47 18.8899 28.5 18.8799 28.53V28.52ZM19.2899 28.1C19.2899 28.1 19.2699 28.01 19.2699 27.97C19.1799 27.98 19.0799 27.99 18.9999 28.02C18.9799 28.02 18.9999 28.13 18.9999 28.19C19.0999 28.16 19.1899 28.13 19.2899 28.1Z" fill="#303436"/>
<path d="M9.70996 24.31C9.73996 24.15 9.77996 23.99 9.77996 23.82C9.77996 23.73 9.71996 23.64 9.67996 23.54C9.59996 23.61 9.47996 23.66 9.43996 23.75C9.36996 23.89 9.35996 24.05 9.29996 24.2C9.27996 24.26 9.18996 24.29 9.13996 24.34C9.11996 24.28 9.05996 24.21 9.06996 24.16C9.10996 23.94 9.15996 23.72 9.20996 23.5C9.21996 23.46 9.25996 23.39 9.28996 23.38C9.48996 23.36 9.68996 23.33 9.88996 23.35C9.94996 23.35 10.04 23.49 10.04 23.57C10.04 23.78 10.02 24 9.96996 24.21C9.95996 24.27 9.83996 24.31 9.76996 24.36L9.71996 24.3L9.70996 24.31Z" fill="#303436"/>
<path d="M21.65 24C21.71 24.32 22.02 24.08 22.15 24.29C21.95 24.4 21.74 24.41 21.56 24.32C21.46 24.27 21.39 24.1 21.38 23.98C21.35 23.6 21.59 23.34 21.95 23.34C22.13 23.34 22.26 23.42 22.29 23.6C22.33 23.78 22.19 23.85 22.05 23.89C21.92 23.93 21.8 23.95 21.65 23.99V24ZM21.66 23.68C21.66 23.68 21.7 23.76 21.72 23.8C21.82 23.76 21.92 23.72 22.02 23.68C21.99 23.63 21.94 23.53 21.93 23.54C21.84 23.58 21.75 23.63 21.66 23.68Z" fill="#303436"/>
<path d="M18.7902 26.22C18.8702 26.49 19.1102 26.34 19.2502 26.43C19.1402 26.63 18.7702 26.66 18.6202 26.49C18.4902 26.35 18.4802 26.02 18.6002 25.83C18.7402 25.61 18.9802 25.51 19.1902 25.57C19.3402 25.61 19.4402 25.71 19.3902 25.86C19.3602 25.96 19.2702 26.06 19.1702 26.11C19.0802 26.17 18.9502 26.17 18.8402 26.2C18.8202 26.2 18.8002 26.22 18.7802 26.23L18.7902 26.22ZM18.8102 25.86C18.8102 25.86 18.8502 25.95 18.8702 25.99C18.9602 25.95 19.0502 25.91 19.1502 25.87C19.1202 25.82 19.1002 25.77 19.0702 25.72L18.8102 25.86Z" fill="#303436"/>
<path d="M23.7802 23.49C23.7502 23.68 23.7202 23.82 23.7202 23.96C23.7202 24.04 23.7902 24.11 23.8302 24.18C23.9002 24.14 24.0002 24.11 24.0502 24.04C24.1002 23.97 24.1102 23.87 24.1302 23.78C24.1502 23.71 24.1302 23.62 24.1802 23.56C24.2302 23.49 24.3102 23.44 24.3702 23.38C24.3902 23.46 24.4402 23.54 24.4302 23.61C24.4002 23.81 24.3602 24 24.3102 24.19C24.3002 24.25 24.2402 24.33 24.1902 24.33C24.0402 24.35 23.8702 24.37 23.7202 24.34C23.6302 24.32 23.4902 24.22 23.4902 24.16C23.4902 23.93 23.5302 23.7 23.5702 23.47C23.5702 23.43 23.6602 23.38 23.7102 23.37C23.7402 23.37 23.7802 23.45 23.7902 23.47L23.7802 23.49Z" fill="#303436"/>
<path d="M27.1902 24C27.4202 23.79 27.3702 23.41 27.7802 23.36C27.5402 23.85 27.3702 24.32 27.0102 24.69C26.9702 24.73 26.9102 24.77 26.8602 24.78C26.8102 24.78 26.7502 24.77 26.7102 24.74C26.6902 24.73 26.7102 24.63 26.7402 24.62C27.1502 24.41 26.9802 24.08 26.9102 23.78C26.8902 23.7 26.8602 23.62 26.8702 23.54C26.8702 23.49 26.9302 23.44 26.9602 23.4C27.0002 23.44 27.0702 23.47 27.0902 23.52C27.1302 23.67 27.1502 23.82 27.1902 24.02V24Z" fill="#303436"/>
<path d="M10.3101 24.32C10.3401 24.15 10.3701 24 10.3901 23.84C10.3901 23.78 10.4301 23.71 10.4101 23.67C10.2601 23.35 10.5301 23.18 10.6701 22.97C10.7301 22.89 10.9001 22.89 11.0201 22.85C11.0401 22.88 11.0501 22.92 11.0701 22.95C10.9901 23.01 10.8601 23.06 10.8301 23.14C10.8001 23.22 10.8601 23.34 10.8801 23.46C10.6001 23.59 10.6501 23.9 10.5801 24.16C10.5301 24.34 10.5401 24.34 10.3101 24.31V24.32Z" fill="#303436"/>
<path d="M17.8902 9.82003C17.4902 9.88003 17.5902 10.15 17.5602 10.38C17.5602 10.47 17.4902 10.61 17.4302 10.62C17.2502 10.65 17.2802 10.49 17.2802 10.38C17.2802 10.05 17.2802 9.72003 17.2802 9.39003C17.2802 9.31003 17.3702 9.23003 17.4202 9.16003C17.4602 9.23003 17.5502 9.31003 17.5502 9.38003C17.5302 9.61003 17.6102 9.76003 17.8802 9.83003L17.8902 9.82003Z" fill="#303436"/>
<path d="M24.14 25.3301C24.22 25.4501 24.28 25.5401 24.36 25.6701C24.13 25.7401 24.08 25.9401 24.08 26.1701C24.08 26.2301 24.1 26.2801 24.11 26.3401C24.13 26.4101 24.14 26.4801 24.16 26.5501C24.1 26.5601 24.02 26.6101 23.98 26.5801C23.91 26.5401 23.82 26.4701 23.8 26.4001C23.78 26.3001 23.82 26.1901 23.82 26.0801C23.82 25.9601 23.82 25.8401 23.8 25.7201C23.77 25.5601 23.93 25.3601 24.13 25.3101L24.14 25.3301Z" fill="#303436"/>
<path d="M17.9102 27.84C18.0202 27.74 18.1302 27.63 18.2402 27.53C18.3402 27.65 18.4102 27.75 18.4702 27.81C18.3802 27.98 18.2902 28.14 18.2302 28.31C18.2002 28.38 18.2302 28.46 18.2502 28.54C18.2602 28.61 18.2802 28.69 18.3002 28.76C18.2302 28.77 18.1502 28.81 18.0902 28.78C18.0202 28.75 17.9502 28.67 17.9202 28.6C17.9002 28.55 17.9402 28.47 17.9502 28.41C17.9602 28.23 17.9702 28.05 17.9802 27.87C17.9602 27.86 17.9402 27.85 17.9202 27.83L17.9102 27.84Z" fill="#303436"/>
<path d="M26.4202 23.0601C26.5002 23.2201 26.5602 23.3301 26.6302 23.4601C26.4302 23.5601 26.3202 23.7201 26.3502 23.9601C26.3502 24.0201 26.3702 24.0701 26.3902 24.1301C26.4102 24.1901 26.4402 24.2501 26.4702 24.3101C26.4002 24.3301 26.3302 24.3701 26.2602 24.3501C26.1902 24.3301 26.0902 24.2701 26.0902 24.2201C26.0702 23.9501 26.0502 23.6801 26.1002 23.4201C26.1302 23.2901 26.3002 23.1901 26.4202 23.0601Z" fill="#303436"/>
<path d="M17.6602 27.84V27.86C17.5502 27.92 17.4402 27.97 17.3302 28.02C17.4102 28.11 17.4802 28.2 17.5602 28.29C17.6902 28.44 17.6502 28.67 17.4602 28.74C17.3702 28.78 17.2702 28.79 17.1702 28.78C17.0902 28.78 17.0202 28.72 16.9502 28.68C17.0202 28.65 17.0802 28.63 17.1502 28.6C17.2102 28.57 17.2702 28.54 17.3302 28.51C17.3002 28.46 17.2902 28.38 17.2402 28.35C17.0802 28.23 16.9602 28.1 17.0902 27.89C17.1802 27.74 17.4602 27.71 17.6602 27.82V27.84Z" fill="#303436"/>
<path d="M27.3401 11.14C27.2601 11.15 27.1701 11.18 27.0901 11.18C26.8201 11.18 26.5401 11.18 26.2701 11.18C26.0501 11.18 25.9401 11.11 25.9601 10.88C25.9601 10.81 25.9401 10.72 25.9601 10.66C25.9801 10.6 26.0501 10.53 26.1101 10.51C26.1501 10.51 26.2401 10.58 26.2501 10.64C26.3501 10.99 26.3401 10.99 26.7201 11C26.9301 11 27.1301 11.01 27.3401 11.02C27.3401 11.06 27.3401 11.1 27.3401 11.15V11.14Z" fill="#303436"/>
<path d="M16.4599 23.1C16.5399 23.22 16.5999 23.33 16.6799 23.45C16.3999 23.64 16.2999 23.89 16.4899 24.22C16.5099 24.25 16.4499 24.36 16.4399 24.35C16.3399 24.33 16.2199 24.33 16.1599 24.27C16.0499 24.15 16.2099 23.26 16.3299 23.16C16.3599 23.13 16.4099 23.12 16.4599 23.1Z" fill="#303436"/>
<path d="M27.37 9.85003C27.37 10.02 27.38 10.18 27.37 10.35C27.37 10.42 27.27 10.47 27.22 10.53C27.18 10.47 27.09 10.42 27.09 10.36C27.08 10.01 27.08 9.66002 27.09 9.32002C27.09 9.26002 27.17 9.21002 27.22 9.15002C27.27 9.20002 27.36 9.25003 27.37 9.31003C27.39 9.49003 27.37 9.67002 27.37 9.86002V9.85003Z" fill="#303436"/>
<path d="M7.88012 9.70002C7.88012 9.82002 7.90012 9.95002 7.88012 10.07C7.87012 10.13 7.79012 10.17 7.74012 10.23C7.70012 10.18 7.61012 10.13 7.61012 10.08C7.61012 9.86002 7.58012 9.69003 7.30012 9.72003C7.28012 9.72003 7.22012 9.65003 7.23012 9.64003C7.25012 9.60003 7.29012 9.55002 7.32012 9.55002C7.51012 9.55002 7.61012 9.46003 7.61012 9.26003C7.61012 9.22003 7.70012 9.16002 7.76012 9.15002C7.79012 9.15002 7.87012 9.22002 7.88012 9.27002C7.90012 9.41002 7.88012 9.55002 7.88012 9.69002V9.70002Z" fill="#303436"/>
<path d="M29.8398 10.24H27.7598C27.9498 10.06 29.6098 10.05 29.8398 10.24Z" fill="#303436"/>
<path d="M23.2701 23.45C23.1401 23.51 23.0201 23.53 22.9601 23.6C22.8701 23.71 22.7701 23.85 22.7501 23.99C22.7301 24.15 22.8701 24.2 23.0201 24.2C23.0601 24.2 23.0901 24.25 23.1201 24.28C23.0901 24.31 23.0501 24.37 23.0201 24.37C22.8601 24.35 22.6401 24.35 22.5701 24.26C22.4801 24.13 22.4601 23.9 22.5001 23.73C22.5801 23.44 22.9801 23.3 23.2501 23.46L23.2701 23.45Z" fill="#303436"/>
<path d="M8.45996 24.32C8.52996 23.92 8.59996 23.51 8.68996 23.11C8.69996 23.06 8.78996 23.03 8.83996 22.99C8.86996 23.04 8.91996 23.1 8.91996 23.14C8.85996 23.51 8.78996 23.89 8.70996 24.26C8.69996 24.31 8.59996 24.34 8.53996 24.38L8.45996 24.32Z" fill="#303436"/>
<path d="M17.63 11.1501C17.63 11.1501 17.54 11.1901 17.5 11.1901C17.12 11.1901 16.74 11.1901 16.35 11.1901C16.28 11.1901 16.16 11.1101 16.15 11.0601C16.13 10.9201 16.12 10.7501 16.19 10.6301C16.24 10.5501 16.41 10.5701 16.41 10.7301C16.41 11.0101 16.58 11.0501 16.8 11.0401C17 11.0401 17.2 11.0401 17.4 11.0401C17.48 11.0401 17.55 11.0601 17.63 11.0701C17.63 11.1001 17.63 11.1201 17.63 11.1501Z" fill="#303436"/>
<path d="M17.1001 10.14C16.9001 10.33 16.0701 10.37 15.8301 10.24C15.8701 10.21 15.9001 10.16 15.9301 10.15C16.0801 10.13 16.1101 10.04 16.1301 9.90995C16.1401 9.83995 16.2201 9.76995 16.2701 9.69995C16.3101 9.75995 16.3901 9.82995 16.4001 9.88995C16.4101 10.08 16.5101 10.13 16.6801 10.13C16.8001 10.13 16.9301 10.13 17.1001 10.13V10.14Z" fill="#303436"/>
<path d="M12.21 24.25C12.26 23.96 12.3 23.72 12.36 23.49C12.37 23.44 12.46 23.4 12.52 23.39C12.6 23.37 12.69 23.39 12.77 23.39C12.81 23.39 12.86 23.41 12.9 23.42C12.88 23.47 12.88 23.56 12.85 23.57C12.53 23.67 12.53 23.96 12.45 24.2C12.43 24.26 12.34 24.3 12.29 24.34C12.25 24.3 12.22 24.25 12.21 24.24V24.25Z" fill="#303436"/>
<path d="M15.9199 9.22994C15.9899 9.20994 16.0699 9.18994 16.1399 9.18994C16.2799 9.18994 16.4199 9.18994 16.5599 9.18994C16.9599 9.18994 17.1099 9.40994 16.9599 9.78994C16.9399 9.82994 16.8599 9.88994 16.8099 9.87994C16.7599 9.87994 16.6999 9.80994 16.6899 9.75994C16.5899 9.35994 16.5899 9.35994 16.1599 9.34994C16.0799 9.34994 15.9999 9.32994 15.9199 9.30994C15.9199 9.27994 15.9199 9.25994 15.9199 9.22994Z" fill="#303436"/>
<path d="M24.78 23.42C24.95 23.41 25.06 23.39 25.18 23.39C25.22 23.39 25.28 23.42 25.29 23.45C25.29 23.49 25.27 23.57 25.24 23.57C24.94 23.66 24.92 23.91 24.88 24.16C24.87 24.23 24.78 24.28 24.73 24.34C24.7 24.27 24.65 24.19 24.66 24.12C24.69 23.88 24.74 23.63 24.78 23.41V23.42Z" fill="#303436"/>
<path d="M25.8202 23.6C25.7602 23.83 25.7202 24.03 25.6602 24.23C25.6402 24.28 25.5602 24.31 25.5102 24.35C25.4802 24.3 25.4302 24.24 25.4302 24.19C25.4702 23.95 25.5202 23.72 25.5802 23.49C25.5902 23.45 25.6702 23.42 25.7202 23.39C25.7502 23.46 25.7902 23.54 25.8202 23.6Z" fill="#303436"/>
<path d="M17.1999 23.43C17.1499 23.69 17.1199 23.95 17.0499 24.2C17.0299 24.26 16.9299 24.3 16.8699 24.35C16.8499 24.28 16.7999 24.21 16.8099 24.14C16.8399 23.94 16.8799 23.73 16.9499 23.54C16.9699 23.47 17.0599 23.42 17.1199 23.36C17.1499 23.38 17.1799 23.41 17.2099 23.43H17.1999Z" fill="#303436"/>
<path d="M14.1001 9.25998C13.8601 9.25998 13.6201 9.25998 13.3801 9.25998C13.3601 9.25998 13.3301 9.21999 13.3301 9.18999C13.3301 9.16999 13.3601 9.12 13.3801 9.12C13.6201 9.12 13.8701 9.12 14.1101 9.12V9.26999L14.1001 9.25998Z" fill="#303436"/>
<path d="M21.0802 9.10997C21.0402 9.20997 21.0402 9.22998 21.0302 9.22998C20.9102 9.22998 20.7902 9.22998 20.6802 9.22998C20.6802 9.18998 20.6802 9.12998 20.6802 9.12998C20.8002 9.11998 20.9202 9.10998 21.0802 9.09998V9.10997Z" fill="#303436"/>
<path d="M17.18 23.19C17.12 23.13 17.05 23.08 17.06 23.05C17.06 23 17.12 22.95 17.16 22.9C17.21 22.94 17.28 22.97 17.29 23.01C17.29 23.05 17.23 23.1 17.18 23.18V23.19Z" fill="#303436"/>
<path d="M25.6699 23.13C25.7399 22.87 25.8299 22.87 25.9699 23.08C25.8499 23.1 25.7599 23.11 25.6699 23.13Z" fill="#303436"/>
</g>
<mask id="mask1_5455_6255" style="mask-type:luminance" maskUnits="userSpaceOnUse" x="115" y="0" width="102" height="32">
<path d="M217 0H115V32H217V0Z" fill="white"/>
</mask>
<g mask="url(#mask1_5455_6255)">
<g opacity="0.5">
<path d="M135.738 19.7603V24.7032H133.337V11.4527H135.721V12.7672C136.352 11.8382 137.421 11.26 138.701 11.26C141.084 11.26 143.257 13.1703 143.257 16.187C143.257 19.2037 141.049 21.1123 138.718 21.1123C137.439 21.11 136.37 20.637 135.738 19.7603ZM140.839 16.1677C140.839 14.6775 139.682 13.5035 138.228 13.5035C136.738 13.5035 135.599 14.6974 135.599 16.1677C135.599 17.6379 136.736 18.8313 138.228 18.8313C139.682 18.8313 140.839 17.6573 140.839 16.1677Z" fill="black"/>
<path d="M165.203 11.4527H167.619V12.5745C168.197 11.7523 169.109 11.26 170.248 11.26C171.669 11.26 172.632 11.8382 173.14 12.8547C173.736 11.8734 174.805 11.2628 176.102 11.2628C178.503 11.2628 179.713 12.7348 179.713 15.1011V20.9173H177.223V15.4479C177.223 14.1681 176.698 13.3795 175.471 13.3795C174.384 13.3795 173.665 14.1186 173.665 15.6054V20.9173H171.195V15.3785C171.195 14.1169 170.669 13.3807 169.494 13.3807C168.357 13.3807 167.637 14.1345 167.637 15.6594V20.9173H165.203V11.4527Z" fill="black"/>
<path d="M185.846 11.276C183.827 11.276 182.159 12.3977 181.372 14.0437C181.05 14.7231 180.884 15.4662 180.886 16.2184C180.886 18.9701 182.849 21.1261 185.899 21.1261C187.894 21.1261 189.196 20.3386 190.137 19.1043L188.159 17.9621C187.682 18.6262 186.965 19.0423 185.934 19.0423C184.532 19.0423 183.532 18.2708 183.217 17.0439H190.673C190.714 16.7712 190.735 16.4958 190.735 16.2201V16.1302C190.736 13.3267 188.683 11.276 185.846 11.276ZM183.288 15.1495C183.673 14.0454 184.62 13.3267 185.846 13.3267C187.108 13.3267 188.019 13.9754 188.335 15.1495H183.288Z" fill="black"/>
<path d="M191.943 11.4528H194.362V12.6468C194.975 11.7883 195.954 11.2623 197.131 11.2623C199.375 11.2623 200.794 12.7343 200.794 15.2058V20.9174H198.323V15.5731C198.323 14.2239 197.674 13.3825 196.395 13.3825C195.258 13.3825 194.38 14.2239 194.38 15.6959V20.9174H191.943V11.4528Z" fill="black"/>
<path d="M201.438 11.4528H203.19V9.40203L205.574 8V11.4528H208.062V13.5911H205.574V17.4822C205.574 18.4812 205.994 18.8314 206.608 18.8314C206.941 18.8314 207.204 18.7262 207.484 18.4812L208.588 20.3739C207.975 20.8287 207.204 21.0925 206.327 21.0925C204.347 21.0925 203.19 20.1459 203.19 17.5675V13.5877H201.438V11.4528Z" fill="black"/>
<path d="M151.551 12.662C150.903 11.7859 149.868 11.26 148.624 11.26C146.205 11.26 144.032 13.1703 144.032 16.1847C144.032 19.1992 146.258 21.11 148.589 21.11C149.816 21.11 150.885 20.5489 151.551 19.6204V20.9173H153.935V11.4556H151.551V12.662ZM149.062 18.8313C147.607 18.8313 146.433 17.6573 146.433 16.1677C146.433 14.6781 147.607 13.5035 149.062 13.5035C150.552 13.5035 151.691 14.6974 151.691 16.1677C151.691 17.6379 150.552 18.8313 149.062 18.8313Z" fill="black"/>
<path d="M162.003 11.4528L159.672 17.5522L157.218 11.4528H154.642L158.445 20.5143L158.495 20.6326L156.96 24.6476L156.952 24.6681H159.476L164.527 11.4528H162.003Z" fill="black"/>
<path d="M210.846 17.8558C211.269 18.6955 212.024 19.1316 213.023 19.1293C214.005 19.1265 214.529 18.6523 214.528 18.0912C214.528 17.4089 213.509 17.2525 212.299 17.0109C210.703 16.6823 208.93 16.1962 208.925 14.1978C208.921 12.6058 210.46 11.214 212.791 11.2254C214.644 11.2203 215.804 11.865 216.666 12.9629L214.657 14.1301C214.27 13.5001 213.673 13.1334 212.796 13.1357C211.849 13.1385 211.395 13.5252 211.396 14.0511C211.396 14.6469 212.169 14.8027 213.557 15.0972C215.135 15.4082 216.996 15.9466 217.001 17.9797C217.005 19.4523 215.693 21.1209 212.942 21.1107C210.866 21.1164 209.494 20.4006 208.7 19.1032L208.697 19.0975L210.846 17.8558Z" fill="black"/>
<path d="M129.555 15.6026C129.375 14.0644 128.641 12.6443 127.49 11.6083C126.339 10.5722 124.849 9.9912 123.301 9.974H123.23C122.983 9.97411 122.737 9.98834 122.491 10.0167C121.623 10.1166 120.785 10.3947 120.03 10.8337C120.013 10.8433 119.998 10.853 119.982 10.8621L119.94 10.8871C116.299 13.0555 115 18.0633 115 21.1101L117.932 19.4176C118.966 21.3864 120.948 22.6839 123.159 22.7077H123.229C123.476 22.7074 123.723 22.693 123.968 22.6645C125.646 22.4687 127.176 21.6148 128.224 20.2904C129.271 18.9661 129.75 17.2799 129.555 15.6026Z" fill="black"/>
</g>
</g>
<path d="M259.525 30.6751H260.688C260.789 30.6852 260.874 30.7155 260.945 30.8274C260.999 30.9144 260.992 31.207 260.992 31.207V33.22C261.007 33.4108 261.102 33.7398 261.823 33.7667H267.159V33.0562H262.609C262.323 33.073 262.294 32.9375 262.286 32.7697V31.0829C262.286 30.9157 262.262 30.764 262.113 30.6744H267.743V29.9679H259.525V30.6751Z" fill="#707070"/>
<path d="M263.83 29.2329C265.45 29.2329 266.764 28.3828 266.764 27.1221C266.764 25.8615 265.45 25.0107 263.83 25.0107C262.21 25.0107 260.898 25.8615 260.898 27.1215C260.898 28.3815 262.211 29.2329 263.83 29.2329ZM263.83 25.732C264.718 25.732 265.437 26.2714 265.437 27.1228C265.437 27.9743 264.718 28.515 263.83 28.515C262.942 28.515 262.224 27.975 262.224 27.1228C262.224 26.2707 262.942 25.732 263.83 25.732Z" fill="#707070"/>
<path d="M242 30.9629H245.499V34H246.843V30.9629H250.343V30.2261H242V30.9629Z" fill="#707070"/>
<path d="M246.171 29.4339C247.871 29.4339 249.25 28.54 249.25 27.2166C249.25 25.8933 247.871 25.0007 246.171 25.0007C244.47 25.0007 243.091 25.8933 243.091 27.2173C243.091 28.5413 244.47 29.4339 246.171 29.4339ZM246.171 25.7584C247.103 25.7584 247.858 26.3247 247.858 27.2186C247.858 28.1126 247.102 28.6795 246.171 28.6795C245.24 28.6795 244.483 28.1133 244.483 27.2186C244.483 26.324 245.238 25.7584 246.171 25.7584Z" fill="#707070"/>
<path d="M270.076 25.4416V25.6991H268.229V26.4036H269.108C268.645 26.7306 268.353 27.2153 268.353 27.8052C268.353 28.9088 269.375 29.6537 270.635 29.6537C271.895 29.6537 272.916 28.9088 272.916 27.8052C272.916 27.2153 272.624 26.7299 272.161 26.4036H272.978V25.6984H271.227V25.3013C271.227 25.1058 271.163 25 270.884 25H269.97C269.97 25 270.076 25.06 270.076 25.4416ZM269.53 27.8052C269.53 27.098 270.025 26.6503 270.634 26.6503C271.244 26.6503 271.738 27.098 271.738 27.8052C271.738 28.5124 271.245 28.96 270.634 28.96C270.024 28.96 269.53 28.513 269.53 27.8052Z" fill="#707070"/>
<path d="M273.151 29.9261C271.589 29.9261 270.323 30.7378 270.323 31.9418C270.323 33.1458 271.589 33.9569 273.151 33.9569C274.712 33.9569 275.979 33.1452 275.979 31.9418C275.979 30.7384 274.712 29.9261 273.151 29.9261ZM273.151 33.2571C272.313 33.2571 271.634 32.7474 271.634 31.9431C271.634 31.1389 272.313 30.6292 273.151 30.6292C273.988 30.6292 274.669 31.1382 274.669 31.9431C274.669 32.7481 273.989 33.2571 273.151 33.2571Z" fill="#707070"/>
<path d="M274.939 25.8555V26.8694H274.451V25.4375C274.451 25.2488 274.385 25.1476 274.094 25.1476H273.28C273.28 25.1476 273.39 25.2414 273.39 25.8555V29.5357H274.451V27.5996H274.939V29.5357H276V25.4375C276 25.2488 275.935 25.1476 275.643 25.1476H274.829C274.829 25.1476 274.939 25.2501 274.939 25.8555Z" fill="#707070"/>
<path d="M256.992 33.7634H258.249V25.4429C258.249 25.2521 258.117 25.149 257.821 25.149H256.879C256.879 25.149 256.991 25.2326 256.991 25.867V33.764L256.992 33.7634Z" fill="#707070"/>
<path d="M256.994 30.1081C256.994 30.7735 255.929 30.76 255.929 30.76H252.843C252.555 30.7775 252.527 30.6419 252.519 30.4741V28.6823H255.183C255.478 28.6823 255.544 28.5777 255.544 28.3869V25.7071C255.544 25.5156 255.478 25.4146 255.183 25.4146H251.068V26.1271H254.233V27.9676H251.094C251.094 27.9676 251.207 28.1058 251.207 28.478V30.9251C251.221 31.1165 251.317 31.4463 252.039 31.4733H255.65C255.65 31.4733 257.064 31.5143 257.064 31.0842" fill="#707070"/>
<mask id="mask2_5455_6255" style="mask-type:luminance" maskUnits="userSpaceOnUse" x="58" y="1" width="34" height="34">
<path d="M92 1H58V35H92V1Z" fill="white"/>
</mask>
<g mask="url(#mask2_5455_6255)">
<mask id="mask3_5455_6255" style="mask-type:alpha" maskUnits="userSpaceOnUse" x="58" y="1" width="34" height="34">
<path fill-rule="evenodd" clip-rule="evenodd" d="M74.9905 1.01904C65.6069 1.01904 58 8.62599 58 18.0097C58 27.3931 65.6069 35 74.9905 35C84.374 35 91.9808 27.3931 91.9808 18.0097C91.9808 8.62599 84.374 1.01904 74.9905 1.01904Z" fill="white"/>
</mask>
<g mask="url(#mask3_5455_6255)">
<path fill-rule="evenodd" clip-rule="evenodd" d="M74.9905 1.01904C65.6069 1.01904 58 8.62599 58 18.0097C58 27.3931 65.6069 35 74.9905 35C84.374 35 91.9808 27.3931 91.9808 18.0097C91.9808 8.62599 84.374 1.01904 74.9905 1.01904Z" fill="#9A9A9A"/>
</g>
<path fill-rule="evenodd" clip-rule="evenodd" d="M72.216 26.8262C72.0339 26.9468 71.8271 26.961 71.5937 26.9597C71.6378 26.7546 71.6741 26.5749 71.7174 26.3971C71.7255 26.364 71.7332 26.313 71.7862 26.313C71.9475 26.313 72.0903 26.315 72.2382 26.369C72.3911 26.4247 72.3827 26.7158 72.216 26.8262ZM71.8979 27.8893C71.9376 28.0478 71.9578 28.2113 71.9817 28.3732C71.9963 28.4728 72.0477 28.5141 72.1474 28.5111C72.2805 28.5072 72.4138 28.5113 72.5469 28.51C72.7281 28.5083 72.7548 28.4779 72.7103 28.2962C72.6315 27.9751 72.5841 27.5814 72.4043 27.3337C72.4381 27.3165 72.5568 27.2722 72.6191 27.2388C72.9497 27.0617 73.1132 26.7436 73.0598 26.3836C73.0137 26.0739 72.8123 25.8623 72.4252 25.8142C72.0411 25.7665 71.6498 25.7725 71.2615 25.7683C71.2381 25.7679 71.1896 25.7667 71.1623 25.7894C71.1323 25.814 71.1242 25.8637 71.1183 25.8903C70.9362 26.7098 70.7632 27.5312 70.5883 28.3521C70.566 28.4566 70.6086 28.5095 70.7152 28.5099C70.8382 28.5103 70.9615 28.5045 71.084 28.5119C71.2073 28.5195 71.2702 28.4779 71.2932 28.3488C71.3372 28.102 71.393 27.8572 71.4535 27.6139C71.4667 27.5614 71.4791 27.4703 71.5128 27.4716C71.5128 27.4716 71.6615 27.4584 71.6998 27.4635C71.7384 27.4686 71.8345 27.636 71.8979 27.8893Z" fill="#C3C3C3"/>
<path fill-rule="evenodd" clip-rule="evenodd" d="M69.2383 27.1886C69.3012 26.9045 69.3611 26.633 69.4227 26.3618C69.4268 26.3437 69.4446 26.3137 69.4546 26.3141C69.5951 26.3216 69.7451 26.307 69.8711 26.355C69.9335 26.3788 69.9845 26.5199 69.9837 26.6074C69.9807 26.9754 69.6718 27.222 69.2383 27.1886ZM70.0964 25.8178C69.8812 25.7762 69.4399 25.7565 69.4395 25.7608C69.2858 25.7608 69.1321 25.7614 68.9783 25.7606C68.8836 25.76 68.8248 25.7989 68.8044 25.8966C68.6318 26.7136 68.4582 27.53 68.2837 28.3467C68.2591 28.4617 68.3063 28.511 68.4191 28.5105C68.5471 28.5097 68.6755 28.5067 68.8034 28.5118C68.9081 28.5159 68.9636 28.4766 68.9831 28.3697C69.0134 28.2035 69.0628 28.0405 69.0891 27.874C69.0984 27.8146 69.1081 27.768 69.1388 27.7431C69.1695 27.7182 69.2209 27.715 69.2791 27.7069C69.5261 27.6729 69.7794 27.6392 70.0126 27.5563C70.4594 27.3975 70.6872 27.0591 70.6996 26.5825C70.7106 26.1645 70.5078 25.8974 70.0964 25.8178Z" fill="#C3C3C3"/>
<path fill-rule="evenodd" clip-rule="evenodd" d="M76.111 26.1837C76.3496 25.6816 76.1979 25.7725 76.7691 25.7622C76.8047 25.7615 76.8407 25.7609 76.8763 25.7633C77.0344 25.7738 77.0732 25.8329 77.0006 25.9692C76.567 26.782 76.1328 27.5944 75.6924 28.4034C75.6647 28.4539 75.5854 28.5003 75.5267 28.5052C75.364 28.519 75.1994 28.5085 75.0356 28.5106C74.9331 28.5117 74.893 28.4628 74.8824 28.3627C74.7963 27.5588 74.708 26.7552 74.6164 25.9519C74.601 25.8171 74.6517 25.7598 74.7833 25.7614C74.9162 25.7631 75.0495 25.7652 75.1825 25.7614C75.3223 25.7571 75.3683 25.824 75.3705 25.9585L75.405 27.6903L76.111 26.1837Z" fill="#C3C3C3"/>
<path fill-rule="evenodd" clip-rule="evenodd" d="M67.3143 27.2361C67.1597 27.2915 66.8178 27.3227 66.8097 27.3057C66.864 27.1152 66.9543 26.9468 67.1545 26.8745C67.2585 26.8368 67.382 26.8147 67.4471 26.9484C67.4951 27.0467 67.4371 27.1922 67.3143 27.2361ZM67.7066 26.4107C67.473 26.3297 67.2337 26.3306 66.9956 26.3896C66.2763 26.5677 66.0018 27.2858 66.0749 27.8808C66.1184 28.2346 66.3329 28.4669 66.6885 28.5097C66.933 28.539 67.1891 28.5303 67.433 28.4922C67.782 28.4375 67.7792 28.4194 67.8413 28.0713C67.879 27.8608 67.8438 27.8386 67.6387 27.8892C67.4269 27.9415 67.2101 27.9771 66.9934 28.003C66.8877 28.0157 66.79 27.9734 66.7725 27.8165C66.8375 27.8117 66.893 27.8085 66.9482 27.8034C67.26 27.7756 67.5726 27.7475 67.8451 27.5716C68.0842 27.4174 68.1786 27.1903 68.1454 26.9123C68.1138 26.6482 67.9462 26.4938 67.7066 26.4107Z" fill="#C3C3C3"/>
<path fill-rule="evenodd" clip-rule="evenodd" d="M81.7847 28.3587C81.7686 28.5094 81.8355 28.5098 82.1034 28.5081C82.3825 28.5063 82.4365 28.5361 82.4693 28.4003L82.6669 27.4226L83.8005 25.9861C83.8329 25.9435 83.8644 25.8804 83.8517 25.834C83.8334 25.767 83.7536 25.7728 83.7536 25.7728H83.2103C83.118 25.7728 83.1089 25.8087 83.1089 25.8087C82.9821 25.9786 82.4753 26.7541 82.434 26.8081C82.4116 26.7283 82.2724 26.1764 82.2295 25.9505C82.2106 25.8516 82.1706 25.7962 82.0981 25.7766C82.07 25.769 81.5786 25.7738 81.5535 25.7781C81.4483 25.7956 81.4373 25.8513 81.4871 25.9951L81.9826 27.3918L81.7847 28.3587Z" fill="#C3C3C3"/>
<path fill-rule="evenodd" clip-rule="evenodd" d="M80.9054 27.9945C80.9034 27.91 80.8548 27.8871 80.7407 27.9093C80.5902 27.9384 80.4414 27.9821 80.2896 27.9969C80.0097 28.0239 79.9051 27.9251 79.898 27.6411C79.8889 27.2799 79.9825 26.9408 80.1519 26.6248C80.323 26.3055 80.5964 26.2003 80.9417 26.3066C81.2593 26.4043 81.2561 26.4036 81.329 26.07C81.3527 25.9612 81.323 25.9008 81.2222 25.8525C81.1093 25.7982 80.9623 25.7259 80.6787 25.7097C80.132 25.7097 79.8373 25.9159 79.5791 26.3091C79.3092 26.7203 79.1889 27.1772 79.2005 27.6634C79.214 28.2412 79.5373 28.542 80.118 28.5433C80.22 28.5436 80.3224 28.5321 80.4236 28.5191C80.7712 28.4745 80.8174 28.4656 80.8719 28.205C80.8797 28.1678 80.9059 28.0137 80.9054 27.9945Z" fill="#C3C3C3"/>
<path fill-rule="evenodd" clip-rule="evenodd" d="M74.25 25.7628C74.1323 25.7606 74.0142 25.7667 73.8968 25.7597C73.7578 25.7514 73.6998 25.8123 73.6718 25.9481C73.5217 26.6797 73.3636 27.4098 73.2067 28.1401C73.1941 28.1981 73.1836 28.2471 73.1761 28.2882C73.1723 28.3087 73.1693 28.3276 73.1674 28.3445C73.1652 28.3615 73.1641 28.3767 73.1641 28.3904C73.1631 28.5108 73.244 28.5105 73.5053 28.5102C73.5719 28.5102 73.6385 28.5079 73.7049 28.5108C73.7959 28.5145 73.8461 28.4766 73.8658 28.3847C74.0398 27.569 74.2154 26.7538 74.3922 25.9387C74.4187 25.8161 74.3658 25.7649 74.25 25.7628Z" fill="#C3C3C3"/>
<path fill-rule="evenodd" clip-rule="evenodd" d="M77.6654 27.4365L78.123 26.51L78.1652 27.4365H77.6654ZM78.9393 28.3055C78.9228 28.1323 78.8988 27.96 78.8778 27.7874C78.8033 27.1729 78.7261 26.5588 78.6558 25.9436C78.6404 25.8073 78.5759 25.7573 78.4455 25.7624C78.3176 25.7671 78.1892 25.7695 78.0616 25.7611C77.922 25.752 77.8384 25.8038 77.7704 25.9311C77.3562 26.7077 76.9334 27.4797 76.514 28.2536L76.4544 28.3513C76.3929 28.5076 76.514 28.5095 76.514 28.5095H77.0464C77.1668 28.5095 77.1823 28.4425 77.1823 28.4425L77.4156 27.9735H78.1408C78.2253 27.9735 78.2178 28.0041 78.2178 28.0041C78.2178 28.0041 78.2151 28.1811 78.2253 28.3502C78.2358 28.5194 78.3152 28.5095 78.3152 28.5095H78.7529C78.9404 28.5078 78.9569 28.4928 78.9393 28.3055Z" fill="#C3C3C3"/>
<path fill-rule="evenodd" clip-rule="evenodd" d="M77.746 30.317C77.7921 30.3262 77.8413 30.3324 77.9149 30.3324C78.1826 30.3324 78.358 30.1602 78.358 29.9541C78.358 29.7541 78.2133 29.6896 78.0412 29.6896C77.9581 29.6896 77.8996 29.6956 77.8626 29.7048L77.746 30.317ZM77.4875 29.3912C77.6197 29.3574 77.8288 29.3358 78.0288 29.3358C78.2133 29.3358 78.4287 29.3666 78.5793 29.4741C78.7177 29.5696 78.8038 29.714 78.8038 29.9141C78.8038 30.1754 78.6839 30.3724 78.521 30.4984C78.3518 30.6308 78.1119 30.6891 77.8598 30.6891C77.7859 30.6891 77.7242 30.683 77.6782 30.6768L77.5368 31.4242H77.103L77.4875 29.3912Z" fill="white"/>
<path fill-rule="evenodd" clip-rule="evenodd" d="M79.2009 29.3512H79.6437L79.3239 31.0367H80.1205L80.0467 31.4242H78.8071L79.2009 29.3512Z" fill="white"/>
<path fill-rule="evenodd" clip-rule="evenodd" d="M81.1379 29.3512L80.9102 30.5447C80.895 30.6154 80.8888 30.6983 80.8888 30.7908C80.8888 30.9566 80.9903 31.086 81.1902 31.086C81.4207 31.086 81.5747 30.9322 81.6486 30.5477L81.8761 29.3512H82.319L82.0945 30.5292C81.9746 31.1567 81.6976 31.4582 81.1347 31.4582C80.7074 31.4582 80.4458 31.2397 80.4458 30.7968C80.4458 30.7075 80.4582 30.606 80.4767 30.5076L80.6951 29.3512H81.1379Z" fill="white"/>
<path fill-rule="evenodd" clip-rule="evenodd" d="M82.402 30.9445C82.525 31.0183 82.7004 31.0766 82.891 31.0766C83.0632 31.0766 83.2201 30.9967 83.2201 30.8337C83.2201 30.7168 83.1309 30.6399 82.9403 30.5415C82.7188 30.4216 82.5097 30.2616 82.5097 29.9909C82.5097 29.5725 82.8756 29.3174 83.3278 29.3174C83.5799 29.3174 83.7277 29.3727 83.8168 29.4219L83.6784 29.791C83.6107 29.7541 83.4633 29.6957 83.2911 29.6987C83.0849 29.6987 82.9771 29.8032 82.9771 29.9171C82.9771 30.0371 83.1033 30.111 83.2787 30.2093C83.5307 30.3415 83.6907 30.5109 83.6907 30.7568C83.6907 31.2182 83.3093 31.4551 82.8481 31.4551C82.5588 31.4551 82.3527 31.3812 82.2544 31.3073L82.402 30.9445Z" fill="white"/>
<path fill-rule="evenodd" clip-rule="evenodd" d="M87.8404 20.7126C87.638 20.1027 87.1913 19.8412 86.5108 19.9351C86.4906 19.9379 86.473 19.9408 86.4607 19.9416C86.1563 19.9544 85.8495 20.1794 85.3178 20.668C84.6816 18.7282 83.885 16.5201 83.3361 15.7739C82.5379 14.6887 81.6642 14.1295 80.9021 13.8481C82.2281 13.1246 83.1276 11.7179 83.1276 10.101C83.1276 7.74496 81.2176 5.83508 78.8616 5.83508C76.5057 5.83508 74.5958 7.74496 74.5958 10.101C74.5958 11.736 75.5161 13.1556 76.8664 13.8716C76.1285 14.1601 75.2592 14.7177 74.3874 15.7739C73.7268 16.5741 72.8582 19.2506 72.2511 21.3341C71.9566 21.2974 71.6658 21.252 71.3794 21.1988C72.1417 18.8734 72.9144 16.6442 73.2762 15.9896C74.1156 14.4709 75.2507 13.7434 75.2507 13.7434C72.3501 10.4513 74.4977 7.44516 74.9215 6.91514C74.6602 6.86096 74.3893 6.83236 74.1117 6.83236C71.9148 6.83236 70.1339 8.61339 70.1339 10.8102C70.1339 12.3348 70.992 13.6584 72.2511 14.3262C71.5632 14.5952 70.7526 15.1152 69.9396 16.0999C69.4237 16.7246 68.7725 18.5755 68.2418 20.3016C67.9657 20.1956 67.7004 20.0866 67.4454 19.9764C67.8669 18.7324 68.2696 17.5938 68.5359 16.9569C69.3513 15.0065 70.6622 14.2871 70.6622 14.2871C70.6622 14.2871 67.7493 11.4506 70.2626 7.82122C69.9612 7.74464 69.6455 7.70365 69.3204 7.70365C67.2131 7.70365 65.5048 9.41191 65.5048 11.5191C65.5048 12.9816 66.328 14.2512 67.5358 14.8916C66.8758 15.1496 66.1708 15.6484 65.3911 16.5931C65.1208 16.9203 64.8065 17.5989 64.4912 18.4168C64.2206 18.2436 64.0693 18.1353 64.0614 18.1296C63.8617 17.9845 63.5818 18.0285 63.4362 18.2285C63.2908 18.4284 63.335 18.7084 63.5349 18.8537C63.7187 18.9877 68.0998 22.1338 73.4181 22.3286C78.546 22.516 81.0403 20.9752 82.2387 20.2347L82.4065 20.1316C82.4838 20.0842 82.7457 19.9376 82.8615 20.035C82.981 20.1359 83.0623 20.488 82.9041 20.8871C82.6666 21.4857 81.9321 22.2061 81.3879 22.5302C81.0444 22.735 80.7954 23.1972 80.9923 23.587C81.3676 24.3306 82.6499 23.7925 83.0714 23.6155C83.8478 23.2895 84.7108 22.4716 85.4724 21.7501C85.846 21.3959 86.3544 20.9142 86.5351 20.8337C86.564 20.8311 86.5972 20.827 86.6336 20.8219C86.8811 20.7876 86.9248 20.7967 86.9904 20.9945C87.0926 21.3019 87.8752 24.0878 84.0084 27.2184C83.8162 27.3741 83.7865 27.6559 83.942 27.848C84.0307 27.9573 84.1599 28.014 84.2903 28.014C84.3891 28.014 84.4889 27.9815 84.5717 27.9143C87.8636 25.2492 88.3898 22.3692 87.8404 20.7126Z" fill="white"/>
</g>
<circle cx="260.559" cy="13.5588" r="9.5" fill="#939393"/>
<path fill-rule="evenodd" clip-rule="evenodd" d="M253.185 19.9149C254.971 19.0893 257.557 18.5684 260.436 18.5684V18.572C263.293 18.572 265.864 19.0856 267.651 19.9012C268.811 18.5652 269.577 16.9028 269.779 15.0778C268.549 11.4883 264.831 8.82678 260.44 8.82678C255.998 8.82678 252.244 11.5517 251.059 15.2036C251.282 16.9849 252.044 18.607 253.185 19.9149Z" fill="#939393"/>
<path fill-rule="evenodd" clip-rule="evenodd" d="M253.189 19.9191C254.971 19.0972 257.558 18.5793 260.436 18.5793C263.294 18.5793 265.866 19.0908 267.649 19.9039C268.79 18.5898 269.552 16.9595 269.769 15.1692C268.561 11.5799 264.837 8.90308 260.436 8.90308C255.992 8.90308 252.237 11.6362 251.068 15.2784C251.304 17.0322 252.062 18.6288 253.189 19.9191Z" fill="#959595"/>
<path fill-rule="evenodd" clip-rule="evenodd" d="M253.194 19.9248C254.971 19.1068 257.556 18.5902 260.432 18.5902C263.291 18.5902 265.864 19.1011 267.642 19.9112C268.77 18.6161 269.528 17.0133 269.758 15.2523C268.57 11.6677 264.842 8.98303 260.432 8.98303C255.98 8.98303 252.228 11.7228 251.08 15.3586C251.327 17.0834 252.081 18.6531 253.194 19.9248Z" fill="#979797"/>
<path fill-rule="evenodd" clip-rule="evenodd" d="M253.198 19.9296C254.971 19.115 257.556 18.6011 260.433 18.6011C263.293 18.6011 265.864 19.1091 267.638 19.9157C268.751 18.6399 269.504 17.0649 269.747 15.3341C268.577 11.7568 264.848 9.06299 260.433 9.06299C255.977 9.06299 252.223 11.806 251.09 15.4319C251.349 17.1301 252.099 18.6751 253.198 19.9296Z" fill="#999999"/>
<path fill-rule="evenodd" clip-rule="evenodd" d="M253.203 19.9355C254.973 19.1247 257.557 18.6121 260.433 18.6121C263.292 18.6121 265.863 19.1189 267.633 19.9216C268.733 18.6626 269.482 17.1115 269.737 15.4064C268.583 11.8395 264.853 9.14294 260.436 9.14294C255.976 9.14294 252.217 11.8948 251.103 15.512C251.373 17.1813 252.119 18.6997 253.203 19.9355Z" fill="#9C9C9C"/>
<path fill-rule="evenodd" clip-rule="evenodd" d="M253.205 19.9374C254.969 19.1298 257.553 18.6196 260.431 18.6194C263.293 18.6196 265.864 19.1249 267.63 19.9259C268.711 18.6895 269.454 17.1711 269.722 15.5015C268.593 11.9367 264.857 9.22656 260.429 9.22656C255.968 9.22656 252.212 11.9775 251.115 15.5819C251.395 17.2246 252.135 18.7186 253.205 19.9374Z" fill="#9E9E9E"/>
<path fill-rule="evenodd" clip-rule="evenodd" d="M253.209 19.9418C254.97 19.1387 257.552 18.6302 260.429 18.6302C263.291 18.6302 265.863 19.1344 267.624 19.9316C268.692 18.7135 269.43 17.2209 269.709 15.5793C268.599 12.0223 264.861 9.3064 260.425 9.3064C255.96 9.3064 252.208 12.0581 251.126 15.6495C251.415 17.2675 252.151 18.7388 253.209 19.9418Z" fill="#A0A0A0"/>
<path fill-rule="evenodd" clip-rule="evenodd" d="M253.213 19.9461C254.969 19.1466 257.549 18.6411 260.425 18.6411H260.429C263.291 18.6411 265.863 19.1425 267.621 19.9363C268.675 18.7344 269.409 17.265 269.697 15.6487C268.602 12.1058 264.865 9.38635 260.429 9.38635C255.961 9.38635 252.204 12.1454 251.141 15.7259C251.439 17.3158 252.17 18.7613 253.213 19.9461Z" fill="#A3A3A3"/>
<path fill-rule="evenodd" clip-rule="evenodd" d="M253.217 19.9519C254.969 19.1564 257.55 18.652 260.425 18.652C263.288 18.652 265.86 19.1527 267.614 19.9432C268.654 18.7604 269.383 17.3178 269.682 15.7308C268.608 12.1941 264.868 9.46631 260.425 9.46631C255.957 9.46631 252.201 12.226 251.153 15.7929C251.46 17.3589 252.187 18.7827 253.217 19.9519Z" fill="#A5A5A5"/>
<path fill-rule="evenodd" clip-rule="evenodd" d="M253.221 19.9562C254.968 19.1642 257.547 18.6629 260.425 18.6629V18.6593C263.289 18.6593 265.864 19.1576 267.612 19.9456C268.638 18.7801 269.361 17.3621 269.669 15.8021C268.614 12.2751 264.875 9.5426 260.425 9.5426C255.951 9.5426 252.197 12.3086 251.168 15.8652C251.483 17.4046 252.205 18.8041 253.221 19.9562Z" fill="#A7A7A7"/>
<path fill-rule="evenodd" clip-rule="evenodd" d="M253.226 19.9618C254.97 19.174 257.548 18.6738 260.426 18.6738V18.6702C263.291 18.6702 265.864 19.1672 267.608 19.9509C268.619 18.8026 269.338 17.4087 269.654 15.875C268.617 12.3609 264.877 9.62256 260.422 9.62256C255.945 9.62256 252.195 12.3906 251.182 15.9304C251.504 17.4467 252.221 18.825 253.226 19.9618Z" fill="#AAAAAA"/>
<path fill-rule="evenodd" clip-rule="evenodd" d="M253.23 19.9662C254.969 19.1819 257.547 18.6848 260.421 18.6848V18.6811C263.289 18.6811 265.861 19.1777 267.601 19.9583C268.6 18.8265 269.315 17.4555 269.639 15.947C268.62 12.4453 264.879 9.70618 260.421 9.70618C255.942 9.70618 252.192 12.4745 251.197 16.0013C251.527 17.4916 252.239 18.8463 253.23 19.9662Z" fill="#ACACAC"/>
<path fill-rule="evenodd" clip-rule="evenodd" d="M253.235 19.9715C254.968 19.1914 257.545 18.6957 260.421 18.6957V18.692C263.288 18.692 265.861 19.1857 267.597 19.9627C268.582 18.848 269.292 17.5009 269.623 16.0186C268.622 12.5307 264.881 9.78613 260.421 9.78613C255.943 9.78613 252.192 12.5557 251.211 16.0644C251.547 17.5322 252.255 18.8663 253.235 19.9715Z" fill="#AEAEAE"/>
<path fill-rule="evenodd" clip-rule="evenodd" d="M253.234 19.9702C254.963 19.1913 257.542 18.6956 260.422 18.6956V18.6992C263.29 18.6992 265.863 19.192 267.593 19.9669C268.565 18.8692 269.269 17.5456 269.607 16.0893C268.623 12.6155 264.883 9.86963 260.422 9.86963C255.941 9.86963 252.19 12.6398 251.227 16.133C251.569 17.5732 252.27 18.8826 253.234 19.9702Z" fill="#B1B1B1"/>
<path fill-rule="evenodd" clip-rule="evenodd" d="M253.238 19.9753C254.963 19.2009 257.54 18.7065 260.421 18.7065L260.417 18.7102C263.287 18.7102 265.862 19.2004 267.588 19.9725C268.545 18.893 269.243 17.5946 269.588 16.1661C268.625 12.704 264.883 9.94958 260.414 9.94958C255.931 9.94958 252.189 12.7172 251.241 16.1925C251.589 17.6115 252.285 18.9017 253.238 19.9753Z" fill="#B3B3B3"/>
<path fill-rule="evenodd" clip-rule="evenodd" d="M253.241 19.9785C254.961 19.2082 257.538 18.7174 260.418 18.7174V18.7211C263.287 18.7211 265.862 19.2101 267.584 19.9778C268.53 18.9123 269.223 17.6331 269.574 16.2258C268.625 12.7816 264.885 10.0295 260.418 10.0295C255.937 10.0295 252.191 12.798 251.257 16.2543C251.61 17.6503 252.301 18.9198 253.241 19.9785Z" fill="#B5B5B5"/>
<path fill-rule="evenodd" clip-rule="evenodd" d="M253.246 19.9838C254.962 19.2166 257.539 18.7284 260.418 18.7284V18.732C263.287 18.732 265.861 19.2181 267.58 19.9825C268.513 18.9331 269.2 17.676 269.557 16.2931C268.625 12.8654 264.886 10.1095 260.418 10.1095C255.936 10.1095 252.191 12.8792 251.274 16.3203C251.633 17.6927 252.318 18.9407 253.246 19.9838Z" fill="#B7B7B7"/>
<path fill-rule="evenodd" clip-rule="evenodd" d="M253.249 19.9876C254.96 19.2256 257.534 18.7393 260.413 18.7393C263.288 18.7393 265.863 19.225 267.576 19.9863C268.496 18.9523 269.178 17.7166 269.54 16.3574C268.627 12.9449 264.888 10.1895 260.417 10.1895C255.938 10.1895 252.193 12.9562 251.289 16.3784C251.652 17.7296 252.332 18.9585 253.249 19.9876Z" fill="#BABABA"/>
<path fill-rule="evenodd" clip-rule="evenodd" d="M253.254 19.9929C254.96 19.2339 257.535 18.7503 260.416 18.7501C263.29 18.7503 265.865 19.233 267.572 19.9907C268.478 18.9739 269.154 17.7616 269.521 16.4284C268.628 13.0288 264.887 10.2693 260.41 10.2693C255.927 10.2693 252.191 13.039 251.307 16.4432C251.675 17.7712 252.349 18.9792 253.254 19.9929Z" fill="#BCBCBC"/>
<path fill-rule="evenodd" clip-rule="evenodd" d="M253.257 19.9966C254.958 19.2427 257.532 18.761 260.414 18.761C263.289 18.761 265.865 19.2424 267.568 19.9959C268.463 18.9927 269.134 17.7989 269.505 16.4862C268.625 13.1081 264.888 10.3492 260.414 10.3492C255.933 10.3492 252.195 13.1156 251.323 16.5C251.695 17.8073 252.364 18.9966 253.257 19.9966Z" fill="#BEBEBE"/>
<path fill-rule="evenodd" clip-rule="evenodd" d="M253.262 20.0018C254.958 19.2511 257.532 18.7721 260.412 18.7719C263.288 18.7721 265.865 19.2508 267.563 20.0012C268.445 19.0148 269.109 17.8437 269.485 16.5564C268.626 13.192 264.888 10.4292 260.41 10.4292C255.929 10.4292 252.195 13.1953 251.341 16.5624C251.717 17.8474 252.381 19.0166 253.262 20.0018Z" fill="#C1C1C1"/>
<path fill-rule="evenodd" clip-rule="evenodd" d="M253.263 20.0029C254.954 19.2568 257.527 18.7792 260.41 18.7792C263.289 18.7792 265.866 19.2572 267.56 20.004C268.431 19.0312 269.089 17.8785 269.468 16.6117C268.623 13.2701 264.888 10.5092 260.414 10.5092C255.935 10.5092 252.199 13.2742 251.357 16.6191C251.736 17.8823 252.394 19.0321 253.263 20.0029Z" fill="#C3C3C3"/>
<path fill-rule="evenodd" clip-rule="evenodd" d="M253.265 20.0056C254.952 19.2639 257.524 18.7901 260.406 18.7901H260.41C263.29 18.7901 265.868 19.2651 267.556 20.0085C268.413 19.0523 269.065 17.9221 269.447 16.6803C268.623 13.3536 264.888 10.5891 260.41 10.5891C255.935 10.5891 252.202 13.3496 251.374 16.6732C251.756 17.9163 252.408 19.048 253.265 20.0056Z" fill="#C5C5C5"/>
<path fill-rule="evenodd" clip-rule="evenodd" d="M253.279 20.021C254.963 19.2849 257.532 18.8155 260.41 18.8155C263.284 18.8155 265.857 19.2875 267.542 20.0238C268.397 19.0738 269.05 17.951 269.436 16.717C268.612 13.4122 264.884 10.6654 260.41 10.6654C255.936 10.6654 252.211 13.4119 251.387 16.7164C251.773 17.9492 252.425 19.0713 253.279 20.021Z" fill="#C7C7C7"/>
<path fill-rule="evenodd" clip-rule="evenodd" d="M253.291 20.0341C254.974 19.3029 257.538 18.8337 260.41 18.8337V18.8373C263.28 18.8373 265.847 19.3048 267.531 20.037C268.383 19.0934 269.036 17.9785 269.425 16.7529C268.601 13.4705 264.877 10.7417 260.41 10.7417C255.943 10.7417 252.221 13.4716 251.399 16.7526C251.788 17.9768 252.439 19.0909 253.291 20.0341Z" fill="#C9C9C9"/>
<path fill-rule="evenodd" clip-rule="evenodd" d="M253.304 20.0484C254.983 19.3234 257.544 18.8592 260.41 18.8592C263.273 18.8592 265.838 19.3241 267.519 20.05C268.368 19.1142 269.019 18.0091 269.411 16.7942C268.592 13.5293 264.873 10.8108 260.41 10.8108C255.95 10.8108 252.232 13.526 251.41 16.7881C251.802 18.0045 252.454 19.1112 253.304 20.0484Z" fill="#CBCBCB"/>
<path fill-rule="evenodd" clip-rule="evenodd" d="M253.319 20.0655C254.998 19.3459 257.552 18.8846 260.41 18.8846C263.268 18.8846 265.825 19.3446 267.505 20.0658C268.352 19.1359 269.004 18.0377 269.4 16.8301C268.58 13.5876 264.865 10.8871 260.41 10.8871C255.954 10.8871 252.242 13.5877 251.424 16.8304C251.82 18.0375 252.472 19.1355 253.319 20.0655Z" fill="#CDCDCD"/>
<path fill-rule="evenodd" clip-rule="evenodd" d="M253.33 20.077C255.005 19.3631 257.556 18.9063 260.41 18.9063C263.263 18.9063 265.816 19.3637 267.493 20.0785C268.338 19.1547 268.99 18.064 269.388 16.8643C268.57 13.6425 264.859 10.9561 260.41 10.9561C255.961 10.9561 252.253 13.6449 251.435 16.8646C251.833 18.0633 252.485 19.1534 253.33 20.077Z" fill="#CFCFCF"/>
<path fill-rule="evenodd" clip-rule="evenodd" d="M253.343 20.0919C255.018 19.3839 257.563 18.9318 260.41 18.9318V18.9282C263.257 18.9282 265.807 19.3814 267.482 20.0909C268.324 19.1731 268.976 18.0898 269.377 16.8981C268.56 13.698 264.855 11.0288 260.413 11.0288C255.973 11.0288 252.266 13.6997 251.447 16.8996C251.848 18.0909 252.5 19.1741 253.343 20.0919Z" fill="#D0D0D0"/>
<path fill-rule="evenodd" clip-rule="evenodd" d="M253.356 20.1057C255.028 19.4028 257.569 18.9535 260.41 18.9535C263.251 18.9535 265.793 19.4036 267.466 20.1077C268.306 19.1974 268.958 18.1232 269.363 16.9411C268.547 13.7618 264.846 11.1086 260.41 11.1086C255.974 11.1086 252.276 13.7614 251.461 16.9405C251.866 18.1217 252.517 19.1955 253.356 20.1057Z" fill="#D2D2D2"/>
<path fill-rule="evenodd" clip-rule="evenodd" d="M253.368 20.118C255.037 19.4204 257.572 18.9754 260.41 18.9754C263.247 18.9754 265.786 19.4209 267.456 20.1193C268.293 19.2148 268.944 18.1478 269.352 16.9735C268.536 13.8157 264.842 11.1777 260.41 11.1777C255.979 11.1777 252.287 13.8186 251.473 16.9745C251.88 18.1476 252.531 19.2139 253.368 20.118Z" fill="#D4D4D4"/>
<path fill-rule="evenodd" clip-rule="evenodd" d="M253.393 20.1455C255.058 19.4596 257.583 19.0227 260.406 19.0227L260.41 19.019C263.236 19.019 265.765 19.4575 267.431 20.1455C268.263 19.2543 268.913 18.2037 269.326 17.0471C268.513 13.9308 264.829 11.3231 260.41 11.3231C255.995 11.3231 252.313 13.9291 251.497 17.0425C251.909 18.2007 252.56 19.253 253.393 20.1455Z" fill="#D8D8D8"/>
<path fill-rule="evenodd" clip-rule="evenodd" d="M253.406 20.1595C255.069 19.4793 257.592 19.0445 260.41 19.0445C263.23 19.0445 265.753 19.4801 267.416 20.1613C268.247 19.2754 268.897 18.2311 269.313 17.0811C268.5 13.988 264.82 11.3994 260.41 11.3994C256 11.3994 252.324 13.9904 251.51 17.0813C251.926 18.2303 252.576 19.2739 253.406 20.1595Z" fill="#DADADA"/>
<path fill-rule="evenodd" clip-rule="evenodd" d="M253.419 20.1738C255.08 19.4985 257.597 19.0663 260.41 19.0663C263.225 19.0663 265.744 19.4972 267.404 20.174C268.232 19.2941 268.882 18.257 269.301 17.1148C268.487 14.045 264.815 11.4757 260.413 11.4757C256.012 11.4757 252.338 14.045 251.522 17.1147C251.941 18.2566 252.591 19.2937 253.419 20.1738Z" fill="#DCDCDC"/>
<path fill-rule="evenodd" clip-rule="evenodd" d="M253.444 20.1999C255.101 19.535 257.608 19.1098 260.41 19.1098V19.1134C263.214 19.1134 265.721 19.5372 267.376 20.2035C268.199 19.3372 268.848 18.3168 269.272 17.1926C268.461 14.1641 264.799 11.6246 260.406 11.6246C256.015 11.6246 252.361 14.1618 251.549 17.186C251.972 18.3111 252.621 19.3326 253.444 20.1999Z" fill="#DFDFDF"/>
<path fill-rule="evenodd" clip-rule="evenodd" d="M253.458 20.2146C255.113 19.5557 257.614 19.1353 260.41 19.1353C263.209 19.1353 265.712 19.5564 267.365 20.2162C268.185 19.3554 268.834 18.3415 269.26 17.2242C268.449 14.2176 264.792 11.6937 260.41 11.6937C256.031 11.6937 252.376 14.2146 251.562 17.2188C251.988 18.3373 252.637 19.3525 253.458 20.2146Z" fill="#E1E1E1"/>
<path fill-rule="evenodd" clip-rule="evenodd" d="M253.472 20.2289C255.125 19.5763 257.622 19.1607 260.41 19.1607V19.1571C263.203 19.1571 265.702 19.574 267.353 20.2285C268.171 19.373 268.82 18.3659 269.248 17.2557C268.436 14.2718 264.784 11.7664 260.41 11.7664C256.041 11.7664 252.391 14.2702 251.574 17.2514C252.003 18.3633 252.652 19.3722 253.472 20.2289Z" fill="#E3E3E3"/>
<path fill-rule="evenodd" clip-rule="evenodd" d="M253.483 20.2406C255.133 19.5922 257.625 19.1789 260.41 19.1789V19.1825C263.196 19.1825 265.689 19.5962 267.337 20.2449C268.153 19.3961 268.801 18.3969 269.233 17.2953C268.421 14.3337 264.775 11.8463 260.406 11.8463C256.039 11.8463 252.402 14.331 251.588 17.2882C252.019 18.3905 252.667 19.3907 253.483 20.2406Z" fill="#E5E5E5"/>
<path fill-rule="evenodd" clip-rule="evenodd" d="M253.497 20.2548C255.144 19.6128 257.631 19.2044 260.41 19.2044C263.192 19.2044 265.679 19.6137 267.325 20.257C268.139 19.4136 268.787 18.4209 269.22 17.3264C268.407 14.3868 264.767 11.9154 260.41 11.9154C256.056 11.9154 252.418 14.386 251.601 17.3208C252.034 18.4164 252.683 19.4103 253.497 20.2548Z" fill="#E7E7E7"/>
<path fill-rule="evenodd" clip-rule="evenodd" d="M253.511 20.2697C255.157 19.6335 257.639 19.2298 260.41 19.2298V19.2261C263.185 19.2261 265.669 19.6328 267.313 20.2698C268.125 19.4313 268.773 18.4445 269.208 17.3563C268.394 14.4401 264.762 11.988 260.41 11.988C256.062 11.988 252.432 14.439 251.614 17.3529C252.049 18.4423 252.698 19.4303 253.511 20.2697Z" fill="#E9E9E9"/>
<path fill-rule="evenodd" clip-rule="evenodd" d="M253.523 20.282C255.166 19.6511 257.644 19.2479 260.41 19.2479V19.2516C263.179 19.2516 265.656 19.6533 267.298 20.2855C268.108 19.4523 268.757 18.4716 269.195 17.3898C268.377 14.4978 264.751 12.0643 260.41 12.0643C256.068 12.0643 252.444 14.4989 251.628 17.3892C252.066 18.4695 252.714 19.4492 253.523 20.282Z" fill="#EBEBEB"/>
<path fill-rule="evenodd" clip-rule="evenodd" d="M253.537 20.2968C255.179 19.6718 257.651 19.2733 260.41 19.2733C263.174 19.2733 265.646 19.6725 267.285 20.2982C268.093 19.4714 268.74 18.4987 269.18 17.4255C268.365 14.5543 264.745 12.137 260.41 12.137C256.078 12.137 252.46 14.5539 251.641 17.4208C252.081 18.495 252.729 19.4689 253.537 20.2968Z" fill="#ECECEC"/>
<path fill-rule="evenodd" clip-rule="evenodd" d="M253.551 20.3106C255.19 19.6908 257.657 19.2951 260.41 19.2951C263.167 19.2951 265.635 19.6898 267.273 20.3116C268.078 19.49 268.725 18.5237 269.168 17.4573C268.349 14.6103 264.736 12.2133 260.41 12.2133C256.087 12.2133 252.476 14.6072 251.654 17.4519C252.096 18.5198 252.744 19.4877 253.551 20.3106Z" fill="#EEEEEE"/>
<path fill-rule="evenodd" clip-rule="evenodd" d="M253.562 20.3216C255.198 19.7079 257.658 19.317 260.406 19.317L260.41 19.3206C263.161 19.3206 265.621 19.7125 267.257 20.3275C268.061 19.5105 268.709 18.5495 269.154 17.4887C268.334 14.6652 264.728 12.286 260.41 12.286C256.093 12.286 252.489 14.6628 251.667 17.482C252.11 18.5428 252.757 19.5041 253.562 20.3216Z" fill="#F0F0F0"/>
<path fill-rule="evenodd" clip-rule="evenodd" d="M253.577 20.337C255.212 19.7289 257.669 19.3424 260.41 19.3424C263.156 19.3424 265.613 19.7297 267.245 20.339C268.048 19.5273 268.695 18.5725 269.142 17.5186C268.319 14.7184 264.72 12.3586 260.414 12.3586C256.108 12.3586 252.506 14.7208 251.682 17.5188C252.128 18.5717 252.775 19.5256 253.577 20.337Z" fill="#F2F2F2"/>
<path fill-rule="evenodd" clip-rule="evenodd" d="M253.591 20.3513C255.224 19.748 257.675 19.3641 260.41 19.3641C263.151 19.3641 265.601 19.7488 267.231 20.3531C268.031 19.5475 268.678 18.6003 269.126 17.5544C268.304 14.7758 264.709 12.4313 260.41 12.4313C256.114 12.4313 252.521 14.7732 251.695 17.5498C252.144 18.5966 252.791 19.5448 253.591 20.3513Z" fill="#F4F4F4"/>
<path fill-rule="evenodd" clip-rule="evenodd" d="M253.604 20.3648C255.235 19.7682 257.681 19.3897 260.406 19.3897H260.41C263.143 19.3897 265.588 19.7694 267.217 20.3676C268.016 19.5665 268.663 18.6244 269.114 17.5839C268.289 14.8289 264.702 12.504 260.41 12.504C256.12 12.504 252.535 14.8286 251.708 17.5794C252.158 18.6203 252.805 19.563 253.604 20.3648Z" fill="#F6F6F6"/>
<path fill-rule="evenodd" clip-rule="evenodd" d="M253.62 20.38C255.248 19.7878 257.688 19.4115 260.41 19.4115C263.137 19.4115 265.576 19.7886 267.202 20.3819C268 19.5855 268.647 18.6491 269.1 17.6147C268.272 14.8842 264.692 12.5803 260.414 12.5803C256.135 12.5803 252.552 14.8869 251.724 17.6156C252.176 18.6487 252.823 19.5842 253.62 20.38Z" fill="#F8F8F8"/>
<path fill-rule="evenodd" clip-rule="evenodd" d="M253.634 20.3942C255.259 19.8083 257.694 19.4368 260.41 19.4368V19.4332C263.132 19.4332 265.567 19.8077 267.19 20.3946C267.985 19.6043 268.631 18.6753 269.085 17.6489C268.259 14.9391 264.685 12.6493 260.41 12.6493C256.139 12.6493 252.567 14.9378 251.737 17.6452C252.191 18.6727 252.838 19.6029 253.634 20.3942Z" fill="#F9F9F9"/>
<path fill-rule="evenodd" clip-rule="evenodd" d="M253.661 20.4214C255.282 19.8467 257.707 19.4805 260.41 19.4805C263.119 19.4805 265.543 19.8476 267.16 20.4237C267.951 19.644 268.597 18.7276 269.056 17.7147C268.225 15.0514 264.666 12.7983 260.41 12.7983C256.157 12.7983 252.599 15.0508 251.766 17.7098C252.224 18.7235 252.87 19.6408 253.661 20.4214Z" fill="#FDFDFD"/>
<path fill-rule="evenodd" clip-rule="evenodd" d="M268.764 18.3C267.191 21.1878 264.042 23.157 260.416 23.1577C256.828 23.157 253.712 21.2359 252.12 18.4084C254.546 17.5569 257.462 17.0588 260.6 17.0588H260.604C263.61 17.0588 266.409 17.5148 268.764 18.3ZM260.416 23.1577C260.415 23.1577 260.414 23.1577 260.414 23.1577H260.417C260.417 23.1577 260.416 23.1577 260.416 23.1577Z" fill="#7E7E7E"/>
<circle cx="260.059" cy="13.0588" r="10" transform="rotate(-0.337756 260.059 13.0588)" stroke="white" stroke-width="2.5"/>
</svg>
