<svg width="64" height="64" viewBox="0 0 64 64" fill="none" xmlns="http://www.w3.org/2000/svg">
<g clip-path="url(#clip0_5713_3458)">
<path d="M32 64C49.6731 64 64 49.6731 64 32C64 14.3269 49.6731 0 32 0C14.3269 0 0 14.3269 0 32C0 49.6731 14.3269 64 32 64Z" fill="white"/>
<path d="M28.0979 43.341C28.3158 43.568 28.6076 43.7063 28.9184 43.7298C29.2292 43.7533 29.5378 43.6605 29.7862 43.4688L29.9078 43.3619L40.1477 33.1708C40.3681 32.9515 40.5035 32.6585 40.5288 32.3458C40.5542 32.033 40.468 31.7214 40.286 31.4682L40.1836 31.343L30.2982 20.6761C30.0748 20.4347 29.7696 20.2892 29.4445 20.2691C29.1195 20.249 28.7991 20.3559 28.5487 20.5679C28.2983 20.7799 28.1366 21.0812 28.0967 21.4103C28.0567 21.7395 28.1413 22.0718 28.3335 22.3396L28.4359 22.4648L37.4585 32.2021L28.1184 41.4976C27.8955 41.7195 27.7598 42.0166 27.7367 42.3332C27.7136 42.6498 27.8047 42.9641 27.993 43.2172L28.0979 43.341V43.341Z" fill="#333333"/>
</g>
<defs>
<clipPath id="clip0_5713_3458">
<rect width="64" height="64" fill="white"/>
</clipPath>
</defs>
</svg>