<svg width="206" height="36" viewBox="0 0 206 36" fill="none" xmlns="http://www.w3.org/2000/svg">
<g clip-path="url(#clip0_5249_3479)">
<path fill-rule="evenodd" clip-rule="evenodd" d="M18.0062 30C18.0062 30 8.7002 22.544 8.7002 15.306C8.7002 12.8379 9.68065 10.4709 11.4259 8.72566C13.1711 6.98045 15.5381 6 18.0062 6C20.4743 6 22.8413 6.98045 24.5865 8.72566C26.3317 10.4709 27.3122 12.8379 27.3122 15.306C27.3122 22.544 18.0062 30 18.0062 30Z" stroke="#333333" stroke-width="1.7" stroke-linecap="round" stroke-linejoin="round"/>
<path d="M17.9124 17.9071C19.45 17.9071 20.6964 16.6607 20.6964 15.1231C20.6964 13.5856 19.45 12.3391 17.9124 12.3391C16.3749 12.3391 15.1284 13.5856 15.1284 15.1231C15.1284 16.6607 16.3749 17.9071 17.9124 17.9071Z" stroke="#333333" stroke-width="1.7" stroke-linecap="square" stroke-linejoin="round"/>
</g>
<path fill-rule="evenodd" clip-rule="evenodd" d="M84.9269 8.89295C84.3269 8.29261 83.6146 7.81636 82.8305 7.49144C82.0465 7.16651 81.2061 6.99927 80.3574 6.99927C79.5086 6.99927 78.6682 7.16651 77.8842 7.49144C77.1001 7.81636 76.3878 8.29261 75.7879 8.89295L73.9589 10.7209L72.1319 8.89295C70.9201 7.68091 69.2765 6.99989 67.5626 6.9997C65.8487 6.99951 64.2049 7.68017 62.9929 8.89195C61.7808 10.1037 61.0998 11.7473 61.0996 13.4612C61.0994 15.1751 61.7801 16.8189 62.9919 18.0309L64.8199 19.8599L73.2519 28.2939C73.4394 28.4814 73.6937 28.5867 73.9589 28.5867C74.224 28.5867 74.4783 28.4814 74.6659 28.2939L83.0989 19.8599L84.9269 18.0319C85.5271 17.432 86.0032 16.7198 86.328 15.9358C86.6528 15.1518 86.82 14.3115 86.82 13.4629C86.82 12.6144 86.6528 11.7741 86.328 10.9901C86.0032 10.2061 85.5271 9.49386 84.9269 8.89395V8.89295Z" stroke="#333333" stroke-width="1.7" stroke-linecap="round"/>
<g clip-path="url(#clip1_5249_3479)">
<path fill-rule="evenodd" clip-rule="evenodd" d="M142.844 10.207L140.124 21.777H124.534L121.824 10.207H142.844Z" stroke="#333333" stroke-width="1.7" stroke-linecap="square" stroke-linejoin="round"/>
<path d="M137.684 29.467C138.866 29.467 139.824 28.5089 139.824 27.327C139.824 26.1451 138.866 25.187 137.684 25.187C136.502 25.187 135.544 26.1451 135.544 27.327C135.544 28.5089 136.502 29.467 137.684 29.467Z" stroke="#333333" stroke-width="1.7" stroke-linecap="square" stroke-linejoin="round"/>
<path d="M126.974 29.467C128.156 29.467 129.114 28.5089 129.114 27.327C129.114 26.1451 128.156 25.187 126.974 25.187C125.792 25.187 124.834 26.1451 124.834 27.327C124.834 28.5089 125.792 29.467 126.974 29.467Z" stroke="#333333" stroke-width="1.7" stroke-linecap="square" stroke-linejoin="round"/>
<path d="M117.164 6.54712H120.964L122.724 14.0471" stroke="#333333" stroke-width="1.7" stroke-linecap="square" stroke-linejoin="round"/>
</g>
<path d="M186.666 23C186.666 23.884 187.017 24.7317 187.642 25.3568C188.267 25.9818 189.115 26.333 189.999 26.333C190.883 26.333 191.731 25.9818 192.356 25.3568C192.981 24.7317 193.332 23.884 193.332 23" stroke="#333333" stroke-width="1.6"/>
<path fill-rule="evenodd" clip-rule="evenodd" d="M199.998 22.738H180L180.013 22.708C180.089 22.573 180.484 22.004 181.199 20.999L181.949 19.949V13.314C181.949 8.829 185.387 5.174 189.69 5.006L190 5C194.446 5 198.05 8.722 198.05 13.314V19.948L199.757 22.359C199.93 22.612 200.011 22.739 199.999 22.739L199.998 22.738Z" stroke="#333333" stroke-width="1.6" stroke-linecap="round" stroke-linejoin="round"/>
<defs>
<clipPath id="clip0_5249_3479">
<rect width="36" height="36" fill="white"/>
</clipPath>
<clipPath id="clip1_5249_3479">
<rect width="36" height="36" fill="white" transform="translate(112)"/>
</clipPath>
</defs>
</svg>
