<svg width="101" height="1797" viewBox="0 0 101 1797" fill="none" xmlns="http://www.w3.org/2000/svg">
<circle cx="33.0137" cy="1734.5" r="1.5" fill="#333333"/>
<path d="M22.0157 1727.5C24.849 1728 33.2157 1728.5 44.0157 1726.5C57.5157 1724 71.0157 1725 77.0157 1741C83.0157 1757 77.0157 1767 70.0157 1774C63.0157 1781 44.5157 1781 38.0157 1779.5C31.5157 1778 29.0157 1775 29.0157 1774C29.0157 1773.2 32.0157 1767 33.5157 1764L50.5157 1771C53.8491 1769.5 60.4157 1765 60.0157 1759C59.5157 1751.5 54.5157 1747.5 48.5157 1747C42.5157 1746.5 29.5158 1748 24.5159 1738.5C20.8463 1731.53 22.3892 1725.44 22.0157 1727.5ZM22.0157 1727.5C22.0158 1724.5 24.8159 1718.6 36.0159 1719C47.2159 1719.4 54.6826 1717.5 57.0159 1716.5" stroke="#333333" stroke-width="2.5" stroke-linecap="round"/>
<path d="M60.0137 1726C58.0137 1730.67 54.0137 1741.7 54.0137 1748.5M60.0137 1757C64.1803 1753.5 73.6137 1746 78.0137 1744M59.0137 1764.5L71.5137 1772M50.5137 1771L51.0137 1780" stroke="#333333" stroke-width="2.5" stroke-linecap="round"/>
<rect x="13" y="1669.86" width="56.3689" height="24.7599" rx="12.38" transform="rotate(-45 13 1669.86)" stroke="#333333" stroke-width="2.5"/>
<circle cx="74.5" cy="1672.5" r="13.5" stroke="#333333" stroke-width="2.5"/>
<circle cx="51.5" cy="1690.5" r="9.5" stroke="#333333" stroke-width="2.5"/>
<line x1="34.3897" y1="1649.88" x2="50.3897" y2="1665.88" stroke="#333333" stroke-width="2.5"/>
<line x1="62" y1="1672.75" x2="87" y2="1672.75" stroke="#333333" stroke-width="2.5"/>
<path d="M61.5 1581C66.3333 1579.17 76.9 1574.8 80.5 1572C85 1568.5 83.5 1564 78.5 1561.5C74.5 1559.5 66.8333 1562.33 63.5 1564L55.5 1567.36M64 1574C61.6667 1582 56.6 1598.6 55 1601C53 1604 51 1605.5 48 1606C45.6 1606.4 43 1606.17 42 1606L44.73 1586.5M45.5 1581L44.73 1586.5M44.73 1586.5C41.82 1588.17 35.1 1591.3 31.5 1590.5C27 1589.5 19 1581 18.5 1578.5C19.6667 1576.67 23.4 1574.1 29 1578.5L43 1572.62M43 1572.62L31.5 1561C31.1667 1560.67 30.9 1559.7 32.5 1558.5C34.5 1557 39 1555.5 40.5 1556.5C41.7 1557.3 51 1564.07 55.5 1567.36M43 1572.62L55.5 1567.36" stroke="#333333" stroke-width="2.5"/>
<line x1="82" y1="1617.25" x2="17" y2="1617.25" stroke="#333333" stroke-width="2.5"/>
<path d="M40 1483H38.75V1483.03L38.7514 1483.06L40 1483ZM43.8979 1495.01L44.8979 1494.26L44.8847 1494.24L44.8708 1494.23L43.8979 1495.01ZM43.8979 1495.01L42.8979 1495.76L42.9111 1495.78L42.9249 1495.8L43.8979 1495.01ZM44.6245 1495.93L43.6325 1496.69L43.6737 1496.74L43.7203 1496.79L44.6245 1495.93ZM46.9944 1501.79L45.7454 1501.74L45.7431 1501.8L45.7461 1501.85L46.9944 1501.79ZM22.0056 1501.79L23.2539 1501.85L23.2569 1501.8L23.2546 1501.74L22.0056 1501.79ZM24.3755 1495.93L25.2797 1496.79L25.3263 1496.74L25.3675 1496.69L24.3755 1495.93ZM25.1021 1495.01L24.1292 1494.23L25.1021 1495.01ZM29 1483L30.2486 1483.06L30.25 1483.03V1483H29ZM31 1470.75C29.2051 1470.75 27.75 1472.21 27.75 1474H30.25C30.25 1473.59 30.5858 1473.25 31 1473.25V1470.75ZM38 1470.75H31V1473.25H38V1470.75ZM41.25 1474C41.25 1472.21 39.7949 1470.75 38 1470.75V1473.25C38.4142 1473.25 38.75 1473.59 38.75 1474H41.25ZM41.25 1483V1474H38.75V1483H41.25ZM44.8708 1494.23C43.9498 1493.08 43.1747 1492.12 42.5529 1490.54C41.9239 1488.96 41.4265 1486.68 41.2486 1482.94L38.7514 1483.06C38.9368 1486.95 39.4623 1489.53 40.2284 1491.46C41.0018 1493.42 41.9941 1494.64 42.9249 1495.8L44.8708 1494.23ZM44.8979 1494.26L44.8979 1494.26L42.8979 1495.76L42.8979 1495.76L44.8979 1494.26ZM45.6165 1495.17C45.3623 1494.84 45.1097 1494.52 44.8709 1494.23L42.9249 1495.8C43.1665 1496.09 43.4 1496.38 43.6325 1496.69L45.6165 1495.17ZM48.25 1501.5C48.25 1499.05 47.2082 1496.82 45.5287 1495.06L43.7203 1496.79C45.0295 1498.16 45.75 1499.79 45.75 1501.5H48.25ZM48.2435 1501.84C48.2478 1501.72 48.25 1501.61 48.25 1501.5H45.75C45.75 1501.58 45.7484 1501.66 45.7454 1501.74L48.2435 1501.84ZM48.25 1502C48.25 1501.91 48.2475 1501.81 48.2427 1501.72L45.7461 1501.85C45.7487 1501.9 45.75 1501.95 45.75 1502H48.25ZM48.25 1538V1502H45.75V1538H48.25ZM43 1543.25C45.8995 1543.25 48.25 1540.9 48.25 1538H45.75C45.75 1539.52 44.5188 1540.75 43 1540.75V1543.25ZM26 1543.25H43V1540.75H26V1543.25ZM20.75 1538C20.75 1540.9 23.1005 1543.25 26 1543.25V1540.75C24.4812 1540.75 23.25 1539.52 23.25 1538H20.75ZM20.75 1502V1538H23.25V1502H20.75ZM20.7573 1501.72C20.7525 1501.81 20.75 1501.91 20.75 1502H23.25C23.25 1501.95 23.2513 1501.9 23.2539 1501.85L20.7573 1501.72ZM20.75 1501.5C20.75 1501.61 20.7522 1501.72 20.7565 1501.84L23.2546 1501.74C23.2516 1501.66 23.25 1501.58 23.25 1501.5H20.75ZM23.4713 1495.06C21.7918 1496.82 20.75 1499.05 20.75 1501.5H23.25C23.25 1499.79 23.9705 1498.16 25.2797 1496.79L23.4713 1495.06ZM24.1292 1494.23C23.8903 1494.52 23.6377 1494.84 23.3835 1495.17L25.3675 1496.69C25.6 1496.38 25.8336 1496.09 26.0751 1495.8L24.1292 1494.23ZM27.7514 1482.94C27.5735 1486.68 27.0761 1488.96 26.4471 1490.54C25.8253 1492.12 25.0502 1493.08 24.1292 1494.23L26.0751 1495.8C27.0059 1494.64 27.9982 1493.42 28.7716 1491.46C29.5377 1489.53 30.0632 1486.95 30.2486 1483.06L27.7514 1482.94ZM27.75 1474V1483H30.25V1474H27.75Z" fill="#333333"/>
<path d="M56.8943 1487.88L58.1354 1488.03V1488.03L56.8943 1487.88ZM54.2244 1510.13L55.452 1510.37L55.4603 1510.32L55.4655 1510.28L54.2244 1510.13ZM78.6671 1509.62L77.4292 1509.8L77.4372 1509.85L77.4504 1509.91L78.6671 1509.62ZM75.6206 1487.86L76.8585 1487.69V1487.69L75.6206 1487.86ZM58.1354 1488.03C58.1203 1488.16 58.0137 1488.25 57.8872 1488.25V1485.75C56.7482 1485.75 55.7889 1486.6 55.6532 1487.73L58.1354 1488.03ZM55.4655 1510.28L58.1354 1488.03L55.6532 1487.73L52.9833 1509.98L55.4655 1510.28ZM55.25 1512.5C55.25 1511.77 55.3195 1511.06 55.452 1510.37L52.9968 1509.89C52.8347 1510.74 52.75 1511.61 52.75 1512.5H55.25ZM66.5 1523.75C60.2868 1523.75 55.25 1518.71 55.25 1512.5H52.75C52.75 1520.09 58.9061 1526.25 66.5 1526.25V1523.75ZM77.75 1512.5C77.75 1518.71 72.7132 1523.75 66.5 1523.75V1526.25C74.0939 1526.25 80.25 1520.09 80.25 1512.5H77.75ZM77.4504 1509.91C77.6462 1510.74 77.75 1511.61 77.75 1512.5H80.25C80.25 1511.41 80.1235 1510.35 79.8838 1509.34L77.4504 1509.91ZM74.3827 1488.03L77.4292 1509.8L79.905 1509.45L76.8585 1487.69L74.3827 1488.03ZM74.6302 1488.25C74.5056 1488.25 74.4 1488.16 74.3827 1488.03L76.8585 1487.69C76.7029 1486.58 75.7524 1485.75 74.6302 1485.75V1488.25ZM57.8872 1488.25H74.6302V1485.75H57.8872V1488.25Z" fill="#333333"/>
<line x1="67.25" y1="1525" x2="67.25" y2="1542" stroke="#333333" stroke-width="2.5"/>
<line x1="77" y1="1541.25" x2="57" y2="1541.25" stroke="#333333" stroke-width="2.5"/>
<line x1="79" y1="1510.25" x2="55" y2="1510.25" stroke="#333333" stroke-width="2.5"/>
<path d="M43.7204 1411.82L44.1431 1410.65L43.7204 1411.82ZM27.25 1403C27.25 1402.59 27.5858 1402.25 28 1402.25V1399.75C26.2051 1399.75 24.75 1401.21 24.75 1403H27.25ZM27.25 1411.25V1403H24.75V1411.25H27.25ZM20.25 1422.18C20.25 1418.26 22.5604 1414.88 25.8983 1413.33L24.8453 1411.06C20.6578 1413.01 17.75 1417.25 17.75 1422.18H20.25ZM20.25 1456V1422.18H17.75V1456H20.25ZM21 1456.75C20.5858 1456.75 20.25 1456.41 20.25 1456H17.75C17.75 1457.79 19.2051 1459.25 21 1459.25V1456.75ZM49 1456.75H21V1459.25H49V1456.75ZM49.75 1456C49.75 1456.41 49.4142 1456.75 49 1456.75V1459.25C50.7949 1459.25 52.25 1457.79 52.25 1456H49.75ZM49.75 1422.18V1456H52.25V1422.18H49.75ZM43.2977 1413C47.0614 1414.35 49.75 1417.95 49.75 1422.18H52.25C52.25 1416.87 48.8679 1412.35 44.1431 1410.65L43.2977 1413ZM41.75 1403V1410.84H44.25V1403H41.75ZM41 1402.25C41.4142 1402.25 41.75 1402.59 41.75 1403H44.25C44.25 1401.21 42.7949 1399.75 41 1399.75V1402.25ZM28 1402.25H41V1399.75H28V1402.25ZM44.1431 1410.65C44.1631 1410.65 44.186 1410.67 44.2066 1410.7C44.2288 1410.73 44.25 1410.78 44.25 1410.84H41.75C41.75 1411.86 42.4287 1412.69 43.2977 1413L44.1431 1410.65ZM24.75 1411.25C24.75 1411.19 24.7679 1411.14 24.7877 1411.11C24.8062 1411.09 24.8271 1411.07 24.8453 1411.06L25.8983 1413.33C26.6721 1412.97 27.25 1412.19 27.25 1411.25H24.75Z" fill="#333333"/>
<line x1="27" y1="1391.75" x2="43" y2="1391.75" stroke="#333333" stroke-width="2.5"/>
<line x1="34.75" y1="1402" x2="34.75" y2="1391" stroke="#333333" stroke-width="2.5"/>
<line x1="26" y1="1411.75" x2="44" y2="1411.75" stroke="#333333" stroke-width="2.5"/>
<path d="M56 1402H82L79.6511 1446.16C79.5664 1447.75 78.2503 1449 76.6553 1449H61.3907C59.797 1449 58.4814 1447.75 58.3951 1446.16L56 1402Z" stroke="#333333" stroke-width="2.5"/>
<rect x="62" y="1449" width="15" height="10" rx="2" stroke="#333333" stroke-width="2.5"/>
<path d="M70.5513 1332.36L69.3533 1332.72L69.3688 1332.77L69.3887 1332.82L70.5513 1332.36ZM71.1874 1335.07L69.9438 1335.2L71.1874 1335.07ZM71.2612 1335.87L70.0156 1335.97L70.0172 1335.99L70.0193 1336.01L71.2612 1335.87ZM71.409 1338.64L70.159 1338.63L70.1589 1338.65L70.1593 1338.66L71.409 1338.64ZM14.0112 1338.62L15.2609 1338.65L15.2613 1338.63L15.2612 1338.61L14.0112 1338.62ZM14.1573 1335.88L15.3993 1336.03L15.4014 1336.01L15.4029 1335.99L14.1573 1335.88ZM14.2325 1335.07L15.476 1335.2L15.476 1335.2L14.2325 1335.07ZM14.8706 1332.36L16.0328 1332.82L16.0528 1332.76L16.0684 1332.71L14.8706 1332.36ZM40.0424 1326.59L39.2351 1327.54L40.0424 1326.59ZM44.4447 1369.36L45.0032 1368.24L44.4447 1369.36ZM40.9752 1369.36L41.5336 1370.48L40.9752 1369.36ZM57.4095 1323.25C63.4894 1323.25 67.6717 1327.07 69.3533 1332.72L71.7492 1332C69.8126 1325.5 64.7943 1320.75 57.4095 1320.75V1323.25ZM69.3887 1332.82C69.6803 1333.56 69.8592 1334.37 69.9438 1335.2L72.431 1334.95C72.3278 1333.93 72.105 1332.89 71.7138 1331.9L69.3887 1332.82ZM69.9438 1335.2C69.9701 1335.46 69.994 1335.72 70.0156 1335.97L72.5068 1335.76C72.484 1335.49 72.4587 1335.22 72.431 1334.95L69.9438 1335.2ZM70.0193 1336.01C70.1122 1336.82 70.1595 1337.65 70.1595 1338.5H72.6595C72.6595 1337.56 72.607 1336.63 72.503 1335.72L70.0193 1336.01ZM70.1595 1338.5C70.1595 1338.54 70.1593 1338.58 70.159 1338.63L72.6589 1338.65C72.6593 1338.6 72.6595 1338.55 72.6595 1338.5H70.1595ZM70.1593 1338.66C70.3671 1348.01 67.484 1355.84 63.5997 1361.31C59.6617 1366.86 54.8822 1369.75 51.4093 1369.75V1372.25C56.068 1372.25 61.5023 1368.58 65.6382 1362.76C69.8278 1356.85 72.8787 1348.5 72.6587 1338.61L70.1593 1338.66ZM51.4093 1369.75C49.1122 1369.75 46.9401 1369.21 45.0032 1368.24L43.8862 1370.48C46.1603 1371.61 48.7138 1372.25 51.4093 1372.25V1369.75ZM40.4167 1368.24C38.4798 1369.21 36.3076 1369.75 34.0105 1369.75V1372.25C36.7061 1372.25 39.2596 1371.61 41.5336 1370.48L40.4167 1368.24ZM34.0105 1369.75C30.5366 1369.75 25.7554 1366.85 21.8168 1361.3C17.932 1355.83 15.0495 1348 15.2609 1338.65L12.7616 1338.59C12.5378 1348.49 15.588 1356.85 19.7781 1362.75C23.9145 1368.58 29.3505 1372.25 34.0105 1372.25V1369.75ZM15.2612 1338.61C15.261 1338.57 15.2608 1338.54 15.2608 1338.5H12.7608C12.7608 1338.54 12.761 1338.59 12.7613 1338.63L15.2612 1338.61ZM15.2608 1338.5C15.2608 1337.66 15.3076 1336.83 15.3993 1336.03L12.9154 1335.74C12.8127 1336.64 12.7608 1337.56 12.7608 1338.5H15.2608ZM15.4029 1335.99C15.4249 1335.73 15.4492 1335.46 15.476 1335.2L12.9889 1334.95C12.9606 1335.23 12.9349 1335.5 12.9117 1335.78L15.4029 1335.99ZM15.476 1335.2C15.5608 1334.37 15.7402 1333.55 16.0328 1332.82L13.7083 1331.89C13.3157 1332.89 13.0922 1333.93 12.9889 1334.95L15.476 1335.2ZM16.0684 1332.71C17.751 1327.07 21.9325 1323.25 28.0108 1323.25V1320.75C20.6281 1320.75 15.6105 1325.5 13.6727 1332L16.0684 1332.71ZM28.0108 1323.25C31.9819 1323.25 36.0762 1324.87 39.2351 1327.54L40.8497 1325.64C37.288 1322.62 32.6337 1320.75 28.0108 1320.75V1323.25ZM46.1852 1327.54C49.3442 1324.87 53.4384 1323.25 57.4095 1323.25V1320.75C52.7866 1320.75 48.1323 1322.62 44.5706 1325.64L46.1852 1327.54ZM39.2351 1327.54C41.1933 1329.2 44.2271 1329.2 46.1852 1327.54L44.5706 1325.64C43.5445 1326.5 41.8758 1326.5 40.8497 1325.64L39.2351 1327.54ZM45.0032 1368.24C43.5644 1367.52 41.8554 1367.52 40.4167 1368.24L41.5336 1370.48C42.2691 1370.11 43.1507 1370.11 43.8862 1370.48L45.0032 1368.24Z" fill="#333333"/>
<path d="M43 1317L43 1328" stroke="#333333" stroke-width="2.5"/>
<path d="M73.9097 1326V1343.5M87.9097 1326V1343.5M80.9097 1323V1349.5M80.9097 1370.5V1349.5M73.9097 1343.5V1352.5L80.9097 1358.5L87.9097 1352.5V1343.5M73.9097 1343.5L80.9097 1349.5M80.9097 1349.5L87.9097 1343.5M73.9097 1333.5L80.9097 1339.5L87.9097 1333.5" stroke="#333333" stroke-width="2.5"/>
<path d="M22.1813 1252.66L23.3858 1253L23.4051 1252.93L23.4162 1252.85L22.1813 1252.66ZM51.8187 1252.66L50.5838 1252.85L50.5949 1252.93L50.6142 1253L51.8187 1252.66ZM30.1676 1240.16L29.1008 1240.82L30.1676 1240.16ZM29.7523 1241.86L29.1474 1240.77L29.7523 1241.86ZM43.8324 1240.16L44.8992 1240.82L43.8324 1240.16ZM44.2477 1241.86L43.6429 1242.96L44.2477 1241.86ZM43.75 1236C43.75 1237.29 43.39 1238.49 42.7656 1239.51L44.8992 1240.82C45.7563 1239.41 46.25 1237.76 46.25 1236H43.75ZM37 1229.25C40.7279 1229.25 43.75 1232.27 43.75 1236H46.25C46.25 1230.89 42.1086 1226.75 37 1226.75V1229.25ZM30.25 1236C30.25 1232.27 33.2721 1229.25 37 1229.25V1226.75C31.8914 1226.75 27.75 1230.89 27.75 1236H30.25ZM31.2344 1239.51C30.61 1238.49 30.25 1237.29 30.25 1236H27.75C27.75 1237.76 28.2436 1239.41 29.1008 1240.82L31.2344 1239.51ZM23.4162 1252.85C24.0837 1248.59 26.7136 1244.97 30.3571 1242.96L29.1474 1240.77C24.8469 1243.15 21.7365 1247.42 20.9463 1252.47L23.4162 1252.85ZM23.25 1254C23.25 1253.65 23.2976 1253.31 23.3858 1253L20.9767 1252.33C20.8287 1252.86 20.75 1253.42 20.75 1254H23.25ZM23.25 1255V1254H20.75V1255H23.25ZM23.25 1293V1255H20.75V1293H23.25ZM27 1296.75C24.9289 1296.75 23.25 1295.07 23.25 1293H20.75C20.75 1296.45 23.5482 1299.25 27 1299.25V1296.75ZM47 1296.75H27V1299.25H47V1296.75ZM50.75 1293C50.75 1295.07 49.0711 1296.75 47 1296.75V1299.25C50.4518 1299.25 53.25 1296.45 53.25 1293H50.75ZM50.75 1255V1293H53.25V1255H50.75ZM50.75 1254V1255H53.25V1254H50.75ZM50.6142 1253C50.7024 1253.31 50.75 1253.65 50.75 1254H53.25C53.25 1253.42 53.1713 1252.86 53.0233 1252.33L50.6142 1253ZM43.6429 1242.96C47.2864 1244.97 49.9163 1248.59 50.5838 1252.85L53.0537 1252.47C52.2635 1247.42 49.1531 1243.15 44.8526 1240.77L43.6429 1242.96ZM29.1008 1240.82C29.0973 1240.81 29.0973 1240.81 29.0976 1240.81C29.098 1240.81 29.0979 1240.82 29.0971 1240.82C29.0964 1240.82 29.0967 1240.82 29.1042 1240.81C29.1127 1240.8 29.1274 1240.78 29.1474 1240.77L30.3571 1242.96C31.6249 1242.26 31.9239 1240.64 31.2344 1239.51L29.1008 1240.82ZM42.7656 1239.51C42.0761 1240.64 42.375 1242.26 43.6429 1242.96L44.8526 1240.77C44.8726 1240.78 44.8873 1240.8 44.8958 1240.81C44.9033 1240.82 44.9036 1240.82 44.9029 1240.82C44.9021 1240.82 44.902 1240.81 44.9024 1240.81C44.9027 1240.81 44.9027 1240.81 44.8992 1240.82L42.7656 1239.51Z" fill="#333333"/>
<line x1="23" y1="1252.75" x2="51" y2="1252.75" stroke="#333333" stroke-width="2.5"/>
<line x1="23" y1="1267.75" x2="37" y2="1267.75" stroke="#333333" stroke-width="2.5"/>
<line x1="23" y1="1280.75" x2="37" y2="1280.75" stroke="#333333" stroke-width="2.5"/>
<path d="M74.95 1290.69L73.7024 1290.77L73.7047 1290.81L73.7095 1290.84L74.95 1290.69ZM62.0718 1290.53L63.3081 1290.72L63.315 1290.67L63.3184 1290.62L62.0718 1290.53ZM64.7806 1253.96L63.534 1253.87L64.7806 1253.96ZM64.1861 1252.94L64.759 1251.83L64.1861 1252.94ZM73.2155 1252.72L72.5921 1251.64L73.2155 1252.72ZM72.667 1253.7L71.4193 1253.78L72.667 1253.7ZM73.8389 1253.81C77.6921 1251.59 80.25 1247.1 80.25 1242H77.75C77.75 1246.28 75.6006 1249.91 72.5921 1251.64L73.8389 1253.81ZM76.1976 1290.61L73.9146 1253.63L71.4193 1253.78L73.7024 1290.77L76.1976 1290.61ZM73.7095 1290.84C73.7362 1291.06 73.75 1291.28 73.75 1291.5H76.25C76.25 1291.17 76.2298 1290.85 76.1904 1290.54L73.7095 1290.84ZM73.75 1291.5C73.75 1294.4 71.3995 1296.75 68.5 1296.75V1299.25C72.7802 1299.25 76.25 1295.78 76.25 1291.5H73.75ZM68.5 1296.75C65.6005 1296.75 63.25 1294.4 63.25 1291.5H60.75C60.75 1295.78 64.2198 1299.25 68.5 1299.25V1296.75ZM63.25 1291.5C63.25 1291.23 63.2699 1290.97 63.3081 1290.72L60.8356 1290.35C60.7791 1290.72 60.75 1291.11 60.75 1291.5H63.25ZM63.534 1253.87L60.8252 1290.44L63.3184 1290.62L66.0272 1254.05L63.534 1253.87ZM56.75 1242C56.75 1247.29 59.5084 1251.94 63.6132 1254.05L64.759 1251.83C61.5689 1250.19 59.25 1246.45 59.25 1242H56.75ZM68.5 1226.75C65.0455 1226.75 62.0879 1228.93 60.0567 1231.79C58.0135 1234.66 56.75 1238.41 56.75 1242H59.25C59.25 1238.96 60.337 1235.71 62.094 1233.24C63.8631 1230.75 66.1555 1229.25 68.5 1229.25V1226.75ZM80.25 1242C80.25 1238.41 78.9865 1234.66 76.9433 1231.79C74.9121 1228.93 71.9545 1226.75 68.5 1226.75V1229.25C70.8445 1229.25 73.1369 1230.75 74.906 1233.24C76.663 1235.71 77.75 1238.96 77.75 1242H80.25ZM66.0272 1254.05C66.0996 1253.08 65.5375 1252.23 64.759 1251.83L63.6132 1254.05C63.5984 1254.05 63.5798 1254.03 63.5635 1254.01C63.5457 1253.98 63.5297 1253.93 63.534 1253.87L66.0272 1254.05ZM72.5921 1251.64C71.8717 1252.06 71.3623 1252.86 71.4193 1253.78L73.9146 1253.63C73.918 1253.68 73.9034 1253.73 73.8867 1253.76C73.8711 1253.78 73.8533 1253.8 73.8389 1253.81L72.5921 1251.64Z" fill="#333333"/>
<path d="M83.161 1190.09L84.3442 1190.5L83.161 1190.09ZM50.1835 1211.75C42.5459 1211.75 35.4864 1208.86 29.8708 1204.63C24.2442 1200.39 20.1493 1194.86 18.3893 1189.69L16.0229 1190.5C17.9703 1196.21 22.4085 1202.13 28.3658 1206.62C34.3343 1211.12 41.9098 1214.25 50.1835 1214.25V1211.75ZM81.9778 1189.69C80.2178 1194.86 76.1229 1200.39 70.4962 1204.63C64.8807 1208.86 57.8212 1211.75 50.1835 1211.75V1214.25C58.4573 1214.25 66.0328 1211.12 72.0012 1206.62C77.9586 1202.13 82.3968 1196.21 84.3442 1190.5L81.9778 1189.69ZM78.9567 1183.75H21.4104V1186.25H78.9567V1183.75ZM84.3442 1190.5C84.9572 1188.7 84.4922 1186.97 83.4148 1185.72C82.356 1184.5 80.7244 1183.75 78.9567 1183.75V1186.25C80.0327 1186.25 80.9618 1186.71 81.5237 1187.36C82.0668 1187.98 82.2821 1188.8 81.9778 1189.69L84.3442 1190.5ZM18.3893 1189.69C18.0849 1188.8 18.3002 1187.98 18.8434 1187.36C19.4053 1186.71 20.3344 1186.25 21.4104 1186.25V1183.75C19.6427 1183.75 18.011 1184.5 16.9523 1185.72C15.8749 1186.97 15.4099 1188.7 16.0229 1190.5L18.3893 1189.69Z" fill="#333333"/>
<path d="M36.9529 1185.5C34.6195 1184 30.0529 1178.7 30.4529 1169.5C30.9529 1158 30.9526 1159.5 32.9526 1159.5C34.5823 1159.5 44.511 1158.84 50.5668 1164M56.9526 1185.5C57.4526 1183.17 57.5526 1176.5 53.9526 1168.5C53.1193 1166.65 51.9431 1165.17 50.5668 1164M50.5668 1164C53.1954 1160.67 60.1526 1154 66.9526 1154C69.6193 1155.67 74.5526 1161.1 72.9526 1169.5M72.9526 1169.5C71.3526 1177.9 65.6193 1183.33 62.9526 1185M72.9526 1169.5C72.9526 1169.5 74.786 1166.17 76.9526 1168C79.1193 1169.83 82.5526 1175.8 78.9526 1185" stroke="#333333" stroke-width="2.5"/>
<path d="M30.4528 1168.5C28.4528 1168 23.5528 1167.9 19.9528 1171.5C15.4528 1176 19.9528 1184.5 24.4528 1185M38.9526 1168.5C41.786 1172.83 48.4526 1182.2 52.4526 1185M63.9526 1163C61.6193 1166.33 56.9526 1173.9 56.9526 1177.5" stroke="#333333" stroke-width="2.5" stroke-linecap="round"/>
<path d="M45 1080.5C48.5 1085.5 48 1095.5 42.5 1097C39.557 1097.8 34.6204 1097.96 33 1090.61M67 1134C65.6094 1119.82 65.3017 1111.82 65.3885 1107M33 1090.61C32.7423 1089.44 32.5685 1088.08 32.4999 1086.5C32.0999 1077.3 40.3332 1072.33 44.4999 1071C48.6666 1070.17 58.2 1069.7 63 1074.5C69 1080.5 66 1082.5 71 1083C76 1083.5 77 1084 77.5 1086.5C78 1089 77 1096.5 68 1097C67.5 1097 66.4 1097.6 66 1100C65.7781 1101.33 65.4578 1103.15 65.3885 1107M33 1090.61C33.3945 1092.95 33.8513 1097.94 33.24 1102.5M21 1133C24.1667 1126.17 30.9 1111.2 32.4999 1106C32.8372 1104.9 33.0767 1103.72 33.24 1102.5M33.24 1102.5C38.419 1104.17 52.0993 1107.4 65.3885 1107" stroke="#333333" stroke-width="2.5" stroke-linecap="round"/>
<circle cx="60" cy="1081.5" r="1.5" fill="#333333"/>
<rect x="23" y="904" width="54" height="69" rx="1" stroke="#333333" stroke-width="2.5"/>
<line x1="24" y1="917.75" x2="77" y2="917.75" stroke="#333333" stroke-width="2.5"/>
<line x1="64" y1="911.75" x2="71" y2="911.75" stroke="#333333" stroke-width="2.5"/>
<circle cx="49.5" cy="944.5" r="19.5" stroke="#333333" stroke-width="2.5"/>
<path d="M60 861L38 888H81L69.5 869.5L66 871.5L60 861Z" stroke="#333333" stroke-width="2.5"/>
<path d="M51 843C51 834.716 44.2843 828 36 828C27.7157 828 21 834.716 21 843" stroke="#333333" stroke-width="2.5"/>
<path d="M52 871L51 843H36.2388H20.9552L20 888H38.1493" stroke="#333333" stroke-width="2.5"/>
<circle cx="36.5" cy="837.5" r="1.5" fill="#333333"/>
<circle cx="30.5" cy="837.5" r="1.5" fill="#333333"/>
<circle cx="42.5" cy="837.5" r="1.5" fill="#333333"/>
<circle cx="64" cy="855" r="1" fill="#333333"/>
<circle cx="72" cy="860" r="1" fill="#333333"/>
<circle cx="69.5" cy="848.5" r="1.5" fill="#333333"/>
<path d="M69.1095 773C61.9428 780.333 48.2095 797.9 50.6095 809.5M36.1094 757C37.1094 767.333 39.8094 790.3 42.6094 799.5M53.6096 795C51.2762 790.833 48.6096 780.3 56.6096 771.5C64.6096 762.7 75.9429 762.833 80.6095 764C81.2762 770.333 80.7095 784.2 73.1095 789C63.6095 795 60.6096 795 53.6096 795ZM21.1094 788C20.4427 794.333 22.5094 807 36.1094 807C37.2761 801.167 35.9094 789.2 21.1094 788ZM34.6094 744C27.1094 753.667 17.7094 775.4 40.1094 785C47.276 778.167 56.2094 760.4 34.6094 744Z" stroke="#333333" stroke-width="2.5" stroke-linecap="round"/>
<path d="M21 615H80L73.5546 647H27.9412L21 615Z" stroke="#333333" stroke-width="2.5"/>
<path d="M17 614.945H84" stroke="#333333" stroke-width="2.5" stroke-linecap="round"/>
<circle cx="66" cy="602.945" r="8" stroke="#333333" stroke-width="2.5"/>
<path d="M52.9998 615V616.25H54.2415L54.2498 615.008L52.9998 615ZM37.0002 615L35.7502 615.008L35.7585 616.25H37.0002V615ZM51.75 614.945C51.75 614.961 51.7499 614.976 51.7498 614.992L54.2498 615.008C54.2499 614.987 54.25 614.966 54.25 614.945H51.75ZM45 608.195C48.7279 608.195 51.75 611.217 51.75 614.945H54.25C54.25 609.837 50.1086 605.695 45 605.695V608.195ZM38.25 614.945C38.25 611.217 41.2721 608.195 45 608.195V605.695C39.8914 605.695 35.75 609.837 35.75 614.945H38.25ZM38.2502 614.992C38.2501 614.976 38.25 614.961 38.25 614.945H35.75C35.75 614.966 35.7501 614.987 35.7502 615.008L38.2502 614.992ZM37.0002 616.25H52.9998V613.75H37.0002V616.25Z" fill="#333333"/>
<path d="M20.6733 605L75.6733 586" stroke="#333333" stroke-width="2.5" stroke-linecap="round"/>
<path d="M47.7957 588.553L48.1193 589.76L47.7957 588.553ZM44.7605 595.578C44.0815 593.044 45.5853 590.439 48.1193 589.76L47.4722 587.345C43.6046 588.382 41.3094 592.357 42.3457 596.225L44.7605 595.578ZM48.1193 589.76C50.6532 589.081 53.2578 590.585 53.9368 593.119L56.3516 592.472C55.3153 588.604 51.3398 586.309 47.4722 587.345L48.1193 589.76Z" fill="#333333"/>
<path d="M40 512C40 516.971 34.8513 523.5 28.5 523.5C22.1487 523.5 17 516.971 17 512C17 507.029 22.1487 503 28.5 503C34.8513 503 40 507.029 40 512Z" stroke="#333333" stroke-width="2.5"/>
<path d="M23.5 523L24.0411 521.873L22.2249 521.001L22.2501 523.016L23.5 523ZM24 563L22.7501 563.016L22.7655 564.25H24V563ZM33 563V564.25H34.2345L34.2499 563.016L33 563ZM33.5 523L34.7499 523.016L34.7751 521.001L32.9589 521.873L33.5 523ZM23.5 523C22.9589 524.127 22.959 524.127 22.9592 524.127C22.9593 524.127 22.9594 524.127 22.9596 524.127C22.9599 524.127 22.9602 524.127 22.9605 524.128C22.9613 524.128 22.9622 524.128 22.9633 524.129C22.9656 524.13 22.9685 524.131 22.9722 524.133C22.9796 524.137 22.9898 524.142 23.0028 524.148C23.0289 524.16 23.066 524.177 23.1131 524.199C23.2074 524.242 23.3421 524.303 23.5091 524.375C23.8423 524.52 24.3083 524.713 24.8405 524.906C25.8594 525.277 27.2876 525.713 28.5 525.713V523.213C27.7598 523.213 26.688 522.918 25.695 522.557C25.2214 522.385 24.8035 522.212 24.5042 522.082C24.355 522.017 24.2364 521.964 24.1564 521.927C24.1164 521.909 24.0861 521.894 24.0666 521.885C24.0568 521.881 24.0497 521.877 24.0454 521.875C24.0433 521.874 24.0418 521.874 24.0411 521.873C24.0407 521.873 24.0406 521.873 24.0406 521.873C24.0406 521.873 24.0406 521.873 24.0407 521.873C24.0407 521.873 24.0409 521.873 24.0409 521.873C24.041 521.873 24.0411 521.873 23.5 523ZM25.2499 562.984L24.7499 522.984L22.2501 523.016L22.7501 563.016L25.2499 562.984ZM28.5 561.75H24V564.25H28.5V561.75ZM33 561.75H28.5V564.25H33V561.75ZM32.2501 522.984L31.7501 562.984L34.2499 563.016L34.7499 523.016L32.2501 522.984ZM28.5 525.713C29.7124 525.713 31.1406 525.277 32.1595 524.906C32.6917 524.713 33.1577 524.52 33.4909 524.375C33.6579 524.303 33.7926 524.242 33.8869 524.199C33.934 524.177 33.9711 524.16 33.9972 524.148C34.0102 524.142 34.0204 524.137 34.0278 524.133C34.0315 524.131 34.0344 524.13 34.0367 524.129C34.0378 524.128 34.0387 524.128 34.0395 524.128C34.0398 524.127 34.0401 524.127 34.0404 524.127C34.0406 524.127 34.0407 524.127 34.0408 524.127C34.041 524.127 34.0411 524.127 33.5 523C32.9589 521.873 32.959 521.873 32.9591 521.873C32.9591 521.873 32.9593 521.873 32.9593 521.873C32.9594 521.873 32.9594 521.873 32.9594 521.873C32.9594 521.873 32.9593 521.873 32.9589 521.873C32.9582 521.874 32.9567 521.874 32.9546 521.875C32.9503 521.877 32.9432 521.881 32.9334 521.885C32.9139 521.894 32.8836 521.909 32.8436 521.927C32.7636 521.964 32.645 522.017 32.4958 522.082C32.1965 522.212 31.7786 522.385 31.305 522.557C30.312 522.918 29.2402 523.213 28.5 523.213V525.713ZM31.75 563.5C31.75 565.295 30.2949 566.75 28.5 566.75V569.25C31.6756 569.25 34.25 566.676 34.25 563.5H31.75ZM28.5 566.75C26.7051 566.75 25.25 565.295 25.25 563.5H22.75C22.75 566.676 25.3244 569.25 28.5 569.25V566.75Z" fill="#333333"/>
<circle cx="61" cy="532" r="23" stroke="#333333" stroke-width="2.5"/>
<path d="M49.5 552H38V562H84V552H72.3187" stroke="#333333" stroke-width="2.5"/>
<circle cx="61" cy="532" r="16" stroke="#333333" stroke-width="2.5"/>
<path fill-rule="evenodd" clip-rule="evenodd" d="M44.8936 346V338H55.8936V346H44.8936ZM42.8936 337C42.8936 336.448 43.3413 336 43.8936 336H56.8936C57.4458 336 57.8936 336.448 57.8936 337V346.627L57.9849 346.694C61.829 349.513 65.5308 353.344 68.4032 357.493C71.2688 361.632 73.3588 366.16 73.8858 370.376C74.3954 374.453 74.5184 382.645 74.456 390.133C74.4247 393.891 74.3464 397.494 74.2445 400.348C74.1438 403.167 74.0181 405.336 73.8799 406.164C73.3811 409.157 70.7776 410.283 69.5579 410.486L69.4889 410.498L69.4189 410.5C62.8319 410.666 52.8503 410.867 44.3128 410.925C40.0453 410.954 36.1309 410.948 33.1796 410.884C31.7055 410.852 30.4601 410.806 29.5267 410.741C29.0613 410.709 28.6592 410.671 28.3389 410.626C28.0688 410.588 27.7128 410.528 27.4462 410.394C27.0441 410.193 26.8001 409.832 26.6535 409.564C26.4912 409.267 26.3558 408.91 26.239 408.524C26.0043 407.749 25.8043 406.722 25.6372 405.512C25.3016 403.083 25.0814 399.79 25.0185 396.017C24.8927 388.469 25.395 378.903 26.9086 370.326C29.2748 356.918 38.1349 349.336 42.8936 346.877V337ZM28.8782 370.674C31.1756 357.655 39.9451 350.519 44.1178 348.5H57.0637C60.627 351.163 64.072 354.751 66.7589 358.632C69.5183 362.618 71.4283 366.84 71.9013 370.624C72.3917 374.547 72.5187 382.605 72.4561 390.117C72.4249 393.859 72.3469 397.444 72.2458 400.277C72.1433 403.146 72.0191 405.164 71.9072 405.836C71.6138 407.596 70.0913 408.344 69.2914 408.502C62.711 408.668 52.7869 408.867 44.2991 408.925C40.0374 408.954 36.1455 408.948 33.2228 408.885C31.7599 408.853 30.5514 408.807 29.6652 408.746C29.2207 408.715 28.8715 408.681 28.6181 408.645C28.5274 408.633 28.4602 408.621 28.4123 408.612L28.4082 408.604C28.3376 408.475 28.2493 408.262 28.1532 407.945C27.9622 407.314 27.7793 406.403 27.6184 405.238C27.2976 402.917 27.0804 399.71 27.0183 395.983C26.894 388.531 27.3917 379.097 28.8782 370.674ZM28.4624 408.691L28.4647 408.694C28.4654 408.695 28.4657 408.695 28.4657 408.695L28.4645 408.693L28.4624 408.691ZM63.1031 375.391C63.2778 373.25 62.8583 370.394 61.7057 367.388C60.5531 364.381 58.956 361.977 57.3943 360.501C55.7165 358.916 54.6303 358.855 54.2119 359.015C53.7935 359.176 53.0262 359.947 52.8385 362.248C52.6638 364.39 53.0833 367.245 54.2359 370.251C55.3885 373.258 56.9856 375.662 58.5472 377.138C60.2251 378.723 61.3113 378.784 61.7297 378.624C62.1481 378.463 62.9153 377.692 63.1031 375.391ZM62.4456 380.491C65.5397 379.305 66.0445 373.118 63.5731 366.672C61.1017 360.226 56.59 355.962 53.4959 357.148C50.4018 358.334 49.897 364.521 52.3684 370.967C54.8398 377.414 59.3515 381.677 62.4456 380.491ZM38.8936 400.5H61.8936V398.5H38.8936V400.5Z" fill="#333333"/>
<path d="M79.2192 208.161C82.5 205 83.5 202.75 83.5 198C83.5 191.348 78.6516 186.5 72 186.5C69.2882 186.5 67.7421 186.896 65.729 188.409" stroke="#333333" stroke-width="2.5" stroke-linecap="round"/>
<path d="M42.6058 198.044C42.6058 191.392 37.2136 186 30.562 186C23.9104 186 19 191.392 19 198.044C19 201.763 20.2044 205.089 22.854 207.298" stroke="#333333" stroke-width="2.5"/>
<path d="M56.0949 198.044C56.0949 191.392 50.7027 186 44.0511 186C41.5522 186 39.2309 186.761 37.3066 188.064" stroke="#333333" stroke-width="2.5"/>
<path d="M70.5475 198.044C70.5475 191.392 65.1554 186 58.5038 186C55.792 186 53.2895 186.896 51.2764 188.409" stroke="#333333" stroke-width="2.5"/>
<path d="M22.3721 206.715V229.175C22.3721 231.936 24.6106 234.175 27.3721 234.175H74.2186C76.98 234.175 79.2186 231.936 79.2186 229.175V208.16" stroke="#333333" stroke-width="2.5"/>
<rect x="26.25" y="41.1328" width="48.5" height="36.5" fill="#D0A6FD" stroke="#5F0080" stroke-width="2.5"/>
<rect x="22.25" y="30.1328" width="56.5" height="13.5" fill="#D0A6FD" stroke="#5F0080" stroke-width="2.5"/>
<line x1="51.25" y1="28.8828" x2="51.25" y2="77.8828" stroke="#5F0080" stroke-width="2.5"/>
<path d="M41.8916 19.3828C47.4916 20.9828 49.8916 26.0494 50.3916 28.3828L50.5 29.8828H41.8916C40.0583 28.8828 37 28.3828 35.3916 25.3828C34.5398 23.7939 34.8916 17.3828 41.8916 19.3828Z" fill="#FCF97C" stroke="#5F0080" stroke-width="2.5"/>
<path d="M59.6084 19.3828C54.0084 20.9828 51.6084 26.0494 51.1084 28.3828L51 29.8828H59.6084C61.4417 28.8828 64.5 28.3828 66.1084 25.3828C66.9602 23.7939 66.6084 17.3828 59.6084 19.3828Z" fill="#FCF97C" stroke="#5F0080" stroke-width="2.5"/>
<path d="M35 107.5H46.5" stroke="#333333" stroke-width="2"/>
<path d="M56 154.5H69" stroke="#333333" stroke-width="2"/>
<mask id="path-73-inside-1_5415_12902" fill="white">
<path fill-rule="evenodd" clip-rule="evenodd" d="M47 137C46.4477 137 46 137.448 46 138V140C46 146.606 49.6575 152.333 55 155.146V164H70V155.146C75.3425 152.333 79 146.606 79 140V138C79 137.448 78.5523 137 78 137H47Z"/>
</mask>
<path d="M55 155.146H57V153.939L55.932 153.377L55 155.146ZM55 164H53V166H55V164ZM70 164V166H72V164H70ZM70 155.146L69.068 153.377L68 153.939V155.146H70ZM48 138C48 138.552 47.5523 139 47 139V135C45.3431 135 44 136.343 44 138H48ZM48 140V138H44V140H48ZM55.932 153.377C51.2405 150.906 48 145.857 48 140H44C44 147.355 48.0745 153.759 54.068 156.916L55.932 153.377ZM57 164V155.146H53V164H57ZM70 162H55V166H70V162ZM68 155.146V164H72V155.146H68ZM77 140C77 145.857 73.7595 150.906 69.068 153.377L70.932 156.916C76.9255 153.759 81 147.355 81 140H77ZM77 138V140H81V138H77ZM78 139C77.4477 139 77 138.552 77 138H81C81 136.343 79.6569 135 78 135V139ZM47 139H78V135H47V139Z" fill="#333333" mask="url(#path-73-inside-1_5415_12902)"/>
<path d="M57.5 137.5C57.6667 137.167 57.6 135.4 56 131C54 125.5 47.5 113 47 109C46.75 107 46.6961 104.248 50 100C53.3039 95.7521 49.5 95 46.5 95C42 95 38.2 95 35 95C31 95 29 96.5 31.5 100.5C33.2989 103.378 34.8334 107.167 35 109C35.5 115.5 26 125.5 24.5 137.5C23 149.5 26 155.5 31.5 163M21 163H77.5" stroke="#333333" stroke-width="2"/>
<path d="M63 681C63 685.971 59.4183 690 55 690C50.5817 690 47 685.971 47 681" stroke="#333333" stroke-width="2.5"/>
<line x1="46.75" y1="682" x2="46.75" y2="666" stroke="#333333" stroke-width="2.5"/>
<line x1="62.75" y1="682" x2="62.75" y2="666" stroke="#333333" stroke-width="2.5"/>
<path d="M56.25 667L56.25 665.75L53.75 665.75L53.75 667L56.25 667ZM53.75 728C53.75 728.69 54.3096 729.25 55 729.25C55.6904 729.25 56.25 728.69 56.25 728L53.75 728ZM53.75 667L53.75 728L56.25 728L56.25 667L53.75 667Z" fill="#333333"/>
<path d="M81 665L81 726" stroke="#333333" stroke-width="2.5" stroke-linecap="round"/>
<path d="M80.9999 665C71.9999 668.5 64.5 690.5 80.9999 699.5" stroke="#333333" stroke-width="2.5"/>
<path d="M38.9999 677.5C38.9999 684.68 34.5228 690 28.9999 690C23.4771 690 19 684.68 19 677.5C19 670.32 23.4771 664 28.9999 664C34.5228 664 38.9999 670.32 38.9999 677.5Z" stroke="#333333" stroke-width="2.5"/>
<path d="M30.25 690L30.25 688.75L27.75 688.75L27.75 690L30.25 690ZM27.75 729C27.75 729.69 28.3096 730.25 29 730.25C29.6904 730.25 30.25 729.69 30.25 729L27.75 729ZM27.75 690L27.75 729L30.25 729L30.25 690L27.75 690Z" fill="#333333"/>
<path d="M52.5657 990.5C56.1657 992.5 56.3991 995.333 56.0657 996.5C55.5656 1000.5 59.0659 998.5 62.0659 1005C64.7328 1010.78 70.5659 1010.5 73.5659 1010C76.5659 1009.5 80.0659 1010 81.0659 1015.5C82.0659 1021 81.0659 1021.5 80.0659 1028C79.0659 1034.5 77.5659 1035.5 74.5659 1038.5C71.5659 1041.5 70.5659 1045 64.0659 1047C57.5659 1049 56.0657 1051.5 51.0659 1051C46.0661 1050.5 41.0659 1051.5 38.5657 1049C36.0656 1046.5 30.0659 1046 28.0657 1042C26.0656 1038 21.0659 1036.5 20.5657 1031C20.0656 1025.5 18.5657 1022.5 18.0657 1020C17.5657 1017.5 20.0657 1014.5 20.5657 1009C21.0657 1003.5 25.0657 1003 28.0657 998C31.0657 993 34.5657 995 38.5657 992.5C42.5657 990 48.0657 988 52.5657 990.5Z" stroke="#333333" stroke-width="2.5"/>
<circle cx="67.0659" cy="992" r="2" fill="#333333"/>
<circle cx="75.0659" cy="999" r="2" fill="#333333"/>
<circle cx="50.0659" cy="1006" r="2" fill="#333333"/>
<circle cx="37.0659" cy="1012" r="2" fill="#333333"/>
<circle cx="37.0659" cy="1028" r="2" fill="#333333"/>
<circle cx="51.0659" cy="1020" r="2" fill="#333333"/>
<circle cx="50.0659" cy="1034" r="2" fill="#333333"/>
<circle cx="64.0659" cy="1028" r="2" fill="#333333"/>
<path d="M21.158 278.231C20.358 283.431 18.8247 290.397 18.158 293.231C17.658 297.397 18.058 307.331 23.658 313.731C30.658 321.731 46.658 323.731 57.658 307.731C68.658 291.731 81.658 291.731 83.658 282.731C85.658 273.731 79.658 268.731 71.658 266.231C63.658 263.731 47.658 265.731 38.658 266.231C29.658 266.731 22.158 271.731 21.158 278.231Z" stroke="#333333" stroke-width="2.3"/>
<path d="M28.6581 286.231C29.8581 280.631 32.8247 278.564 34.1581 278.231C39.1581 277.731 47.6581 288.731 50.6581 293.231C53.6581 297.731 50.6581 305.231 43.1581 308.731C35.6581 312.231 31.6581 309.731 27.6581 305.231C23.6581 300.731 27.1581 293.231 28.6581 286.231Z" stroke="#333333" stroke-width="2.3"/>
<path d="M52.1581 282.731C49.7581 278.331 50.6581 275.731 55.6581 274.731C58.6581 274.564 65.1581 274.331 69.1581 274.731C74.1581 275.231 75.1581 279.231 74.6581 281.731C74.1581 284.231 69.6581 284.731 64.6581 287.731C59.6581 290.731 55.1581 288.231 52.1581 282.731Z" stroke="#333333" stroke-width="2.3"/>
<path d="M59.5 453.5L61 429H28L30.5 455.25L33 481.5M24 480.5H82.5" stroke="#333333" stroke-width="2"/>
<path d="M44 454V453H43V454H44ZM80 454H81V453H80V454ZM52.6892 480L52.1208 480.823L52.3773 481H52.6892V480ZM71.3108 480V481H71.6227L71.8792 480.823L71.3108 480ZM44 455H80V453H44V455ZM45 458.75V454H43V458.75H45ZM45 463.5V458.75H43V463.5H45ZM53.2576 479.177C48.3121 475.761 45 469.696 45 463.5H43C43 470.371 46.6496 477.043 52.1208 480.823L53.2576 479.177ZM71.3108 479H52.6892V481H71.3108V479ZM79 463.5C79 469.696 75.6879 475.761 70.7424 479.177L71.8792 480.823C77.3504 477.043 81 470.371 81 463.5H79ZM79 454V463.5H81V454H79Z" fill="#333333"/>
<path d="M79.4998 469.5C83.6419 469.5 87.4998 466.814 87.4998 463.5C87.4998 460.186 84.1419 457.5 79.9998 457.5M69.4998 434C70.6665 434.667 72.5998 436.9 70.9998 440.5C68.9998 445 68.4998 445.5 70.9998 449.5" stroke="#333333" stroke-width="2" stroke-linecap="round"/>
<path d="M29.5 441H60" stroke="#333333" stroke-width="2"/>
</svg>
