<svg width="376" height="60" viewBox="0 0 376 60" fill="none" xmlns="http://www.w3.org/2000/svg">
<circle cx="188" cy="30" r="30" fill="#4267B2"/>
<path fill-rule="evenodd" clip-rule="evenodd" d="M196.675 26.2478L195.886 32.6816L190.612 32.6818V46.8947H184.288V32.6818H179V26.248H184.288V21.504C184.288 15.998 187.489 13 192.163 13C194.403 13 196.328 13.1753 196.889 13.2534V19.0076L193.646 19.009C191.104 19.009 190.612 20.2778 190.612 22.1405V26.2478H196.675Z" fill="white"/>
<circle cx="267" cy="30" r="30" fill="#38C800"/>
<rect x="256" y="15" width="22" height="22" fill="white"/>
<path fill-rule="evenodd" clip-rule="evenodd" d="M262 31V21H266L268 24.3333V21H272V31H268L266 27.6667V31H262Z" fill="#38C800"/>
<path fill-rule="evenodd" clip-rule="evenodd" d="M271.33 46L267 51L262.67 46H271.33ZM273.062 44L277.393 39H256.608L260.938 44H273.062Z" fill="white"/>
<circle cx="346" cy="30" r="30" fill="#FF0000"/>
<path d="M359.109 42.2699C359.109 42.2699 349.278 42.5484 346 42.5484C342.722 42.5484 332.891 42.2699 332.891 42.2699C330.352 42.2699 328.275 40.1631 328.275 37.5883C328.275 37.5883 328 31.7305 328 29.7742C328 27.8179 328.275 21.96 328.275 21.96C328.275 19.3852 330.352 17.2785 332.891 17.2785C332.891 17.2785 342.722 17 346 17C349.278 17 359.109 17.2785 359.109 17.2785C361.648 17.2785 363.725 19.3852 363.725 21.96C363.725 21.96 364 27.813 364 29.7742C364 31.7355 363.725 37.5883 363.725 37.5883C363.725 40.1631 361.648 42.2699 359.109 42.2699Z" fill="white"/>
<path fill-rule="evenodd" clip-rule="evenodd" d="M343.097 35.5807V23.9678L352.387 29.7733L343.097 35.5807Z" fill="#FF0000"/>
<circle cx="109" cy="30" r="30" fill="url(#paint0_radial_5249_7082)"/>
<path d="M115.897 48H102.103C95.981 48 91 42.7811 91 36.3675V23.6325C91 17.2186 95.9808 12 102.103 12H115.897C122.019 12 127 17.2186 127 23.6325V36.3675C127 42.7811 122.019 48 115.897 48ZM102.103 14.5853C97.3412 14.5853 93.4673 18.6439 93.4673 23.6325V36.3675C93.4673 41.3561 97.3412 45.4144 102.103 45.4144H115.897C120.658 45.4144 124.532 41.3561 124.532 36.3675V23.6325C124.532 18.6439 120.658 14.5853 115.897 14.5853H102.103Z" fill="white"/>
<path d="M108.799 39.779C103.396 39.779 99.0005 35.3833 99.0005 29.9809C99.0005 24.5774 103.396 20.1824 108.799 20.1824C114.201 20.1824 118.597 24.5774 118.597 29.9809C118.597 35.3831 114.201 39.779 108.799 39.779ZM108.799 22.6284C104.744 22.6284 101.447 25.9266 101.447 29.9809C101.447 34.0346 104.745 37.3328 108.799 37.3328C112.853 37.3328 116.151 34.0346 116.151 29.9809C116.151 25.9266 112.853 22.6284 108.799 22.6284Z" fill="white"/>
<path d="M120.479 20.4839C120.479 21.6062 119.569 22.5165 118.446 22.5165C117.323 22.5165 116.413 21.606 116.413 20.4839C116.413 19.3605 117.323 18.4504 118.446 18.4504C119.569 18.4507 120.479 19.3605 120.479 20.4839Z" fill="white"/>
<circle cx="30" cy="30" r="30" fill="#2DB400"/>
<path d="M19.6395 27.9783C18.9745 27.9783 18.4355 28.5172 18.4355 29.1823C18.4355 29.8473 18.9745 30.3887 19.6395 30.3887C20.3046 30.3887 20.8435 29.8498 20.8435 29.1823C20.8435 28.5148 20.3046 27.9783 19.6395 27.9783Z" fill="white"/>
<path d="M31.5406 27.8545C30.8237 27.8545 30.2427 28.4355 30.2427 29.1524C30.2427 29.8694 30.8237 30.4504 31.5406 30.4504C32.2576 30.4504 32.8386 29.8694 32.8386 29.1524C32.8386 28.4355 32.2576 27.8545 31.5406 27.8545Z" fill="white"/>
<path d="M42.3175 16H16.6825C14.0965 16 12 18.0965 12 20.6825V35.8969C12 38.4829 14.0965 40.5794 16.6825 40.5794H25.736L28.8164 47.8355C28.8164 47.8355 29.029 48.4634 29.5408 48.4634C30.055 48.4634 30.2652 47.8355 30.2652 47.8355L33.3456 40.5794H42.3175C44.9035 40.5794 47 38.4829 47 35.8969V20.6825C47 18.0965 44.9035 16 42.3175 16ZM22.9967 29.4492C22.9818 32.2305 20.1066 32.3096 20.1066 32.3096C18.9941 32.3096 18.3661 31.5729 18.3661 31.5729V32.0747H16.2721V23.4391C16.2721 23.4391 16.2622 23.4366 16.2721 23.4341V23.4391C16.4031 23.4589 18.3661 23.4341 18.3661 23.4341V26.7371C18.8581 25.8965 20.2821 25.9114 20.2821 25.9114C23.3824 26.2006 22.9942 29.4517 22.9942 29.4517L22.9967 29.4492ZM26.6828 26.1759V32.0896H24.6333V26.2352C24.6333 25.4391 23.6444 25.2166 23.6444 25.2166V23.1523C26.9177 23.2858 26.6828 26.1759 26.6828 26.1759ZM31.5409 32.3146C29.6422 32.3146 28.1044 30.8979 28.1044 29.1525C28.1044 27.4071 29.6422 25.9905 31.5409 25.9905C33.4396 25.9905 34.9773 27.4071 34.9773 29.1525C34.9773 30.8979 33.4396 32.3146 31.5409 32.3146ZM42.7699 32.3146C42.7699 32.3146 42.7996 35.3184 39.7463 35.3184H38.8168V33.3727H39.378C39.378 33.3727 40.6611 33.4913 40.6462 31.5135C40.6462 31.5135 40.3966 32.3146 38.5967 32.3146C38.5967 32.3146 36.0453 32.1316 36.0453 29.642V28.6976C36.0453 28.6976 36.1047 26.1165 38.9058 25.9114C38.9058 25.9114 40.0109 25.7927 40.6908 26.7074V26.0745H42.7699V32.317V32.3146Z" fill="white"/>
<path d="M39.5114 27.8843C38.8118 27.8843 38.2432 28.4529 38.2432 29.1526C38.2432 29.8522 38.8118 30.4208 39.5114 30.4208C40.2111 30.4208 40.7797 29.8522 40.7797 29.1526C40.7797 28.4529 40.2111 27.8843 39.5114 27.8843Z" fill="white"/>
<defs>
<radialGradient id="paint0_radial_5249_7082" cx="0" cy="0" r="1" gradientUnits="userSpaceOnUse" gradientTransform="translate(128 7.5) rotate(133.418) scale(64.0176)">
<stop stop-color="#9043A0"/>
<stop offset="0.348992" stop-color="#C1357A"/>
<stop offset="0.526645" stop-color="#D04765"/>
<stop offset="0.744178" stop-color="#EA6541"/>
<stop offset="0.947987" stop-color="#F9A052"/>
</radialGradient>
</defs>
</svg>
