<svg width="56" height="184" viewBox="0 0 56 184" fill="none" xmlns="http://www.w3.org/2000/svg">
<rect x="0.5" y="128.5" width="55" height="55" rx="3.5" stroke="#E1E1E1"/>
<path d="M24.249 163.875C24.249 164.869 24.6441 165.823 25.3473 166.526C26.0505 167.23 27.0042 167.625 27.9986 167.625C28.9931 167.625 29.9468 167.23 30.65 166.526C31.3532 165.823 31.7483 164.869 31.7483 163.875" stroke="#E1E1E1" stroke-width="1.6"/>
<path fill-rule="evenodd" clip-rule="evenodd" d="M39.2477 163.58H16.75L16.7646 163.547C16.8501 163.395 17.2945 162.755 18.0989 161.624L18.9426 160.443V152.978C18.9426 147.933 22.8104 143.821 27.6512 143.632L28 143.625C33.0018 143.625 37.0562 147.812 37.0562 152.978V160.441L38.9766 163.154C39.1712 163.438 39.2624 163.581 39.2489 163.581L39.2477 163.58Z" stroke="#E1E1E1" stroke-width="1.6" stroke-linecap="round" stroke-linejoin="round"/>
<rect x="0.5" y="0.5" width="55" height="55" rx="3.5" stroke="#E1E1E1"/>
<path fill-rule="evenodd" clip-rule="evenodd" d="M38.9269 18.8929C38.3269 18.2926 37.6146 17.8164 36.8305 17.4914C36.0465 17.1665 35.2061 16.9993 34.3574 16.9993C33.5086 16.9993 32.6682 17.1665 31.8842 17.4914C31.1001 17.8164 30.3878 18.2926 29.7879 18.8929L27.9589 20.7209L26.1319 18.8929C24.9201 17.6809 23.2765 16.9999 21.5626 16.9997C19.8487 16.9995 18.2049 17.6802 16.9929 18.8919C15.7808 20.1037 15.0998 21.7473 15.0996 23.4612C15.0994 25.1751 15.7801 26.8189 16.9919 28.0309L18.8199 29.8599L27.2519 38.2939C27.4394 38.4814 27.6937 38.5867 27.9589 38.5867C28.224 38.5867 28.4783 38.4814 28.6659 38.2939L37.0989 29.8599L38.9269 28.0319C39.5271 27.432 40.0032 26.7198 40.328 25.9358C40.6528 25.1518 40.82 24.3115 40.82 23.4629C40.82 22.6144 40.6528 21.7741 40.328 20.9901C40.0032 20.2061 39.5271 19.4939 38.9269 18.8939V18.8929Z" fill="#FF5A5A" stroke="#FF5A5A" stroke-linecap="round"/>
<rect x="0.5" y="64.5" width="55" height="55" rx="3.5" stroke="#E1E1E1"/>
<path fill-rule="evenodd" clip-rule="evenodd" d="M38.9269 82.8929C38.3269 82.2926 37.6146 81.8164 36.8305 81.4914C36.0465 81.1665 35.2061 80.9993 34.3574 80.9993C33.5086 80.9993 32.6682 81.1665 31.8842 81.4914C31.1001 81.8164 30.3878 82.2926 29.7879 82.8929L27.9589 84.7209L26.1319 82.8929C24.9201 81.6809 23.2765 80.9999 21.5626 80.9997C19.8487 80.9995 18.2049 81.6802 16.9929 82.8919C15.7808 84.1037 15.0998 85.7473 15.0996 87.4612C15.0994 89.1751 15.7801 90.8189 16.9919 92.0309L18.8199 93.8599L27.2519 102.294C27.4394 102.481 27.6937 102.587 27.9589 102.587C28.224 102.587 28.4783 102.481 28.6659 102.294L37.0989 93.8599L38.9269 92.0319C39.5271 91.432 40.0032 90.7198 40.328 89.9358C40.6528 89.1518 40.82 88.3115 40.82 87.4629C40.82 86.6144 40.6528 85.7741 40.328 84.9901C40.0032 84.2061 39.5271 83.4939 38.9269 82.8939V82.8929Z" stroke="#5F0080" stroke-width="1.7" stroke-linecap="round"/>
</svg>